<svg data-v-423bf9ae="" xmlns="http://www.w3.org/2000/svg" viewBox="0 0 368.18706868530165 163" class="iconAbove"><!----><!----><!----><g data-v-423bf9ae="" id="7bf07ba8-78c7-4d0b-88e8-269691970aca" fill="white" transform="matrix(5.725191116333008,0,0,5.725191116333008,-1.7748159170150757,78.66793823242188)"><path d="M10.25 4.33L11.54 4.33L9.38 14.52L7.90 14.52L5.95 6.50L4.03 14.52L2.55 14.52L0.31 4.33L1.77 4.33L3.37 12.61L5.32 4.33L6.69 4.33L8.70 12.61L10.25 4.33ZM18.33 9.56L18.33 14.52L17.26 14.52L17.04 13.45L17.04 13.45Q16.84 14.15 16.30 14.39L16.30 14.39L16.30 14.39Q15.76 14.62 14.73 14.62L14.73 14.62L14.73 14.62Q14.05 14.62 13.61 14.49L13.61 14.49L13.61 14.49Q13.17 14.36 12.91 14.04L12.91 14.04L12.91 14.04Q12.65 13.73 12.55 13.27L12.55 13.27L12.55 13.27Q12.46 12.82 12.46 12.10L12.46 12.10L12.46 12.10Q12.46 11.78 12.57 11.53L12.57 11.53L12.57 11.53Q12.68 11.27 12.88 11.09L12.88 11.09L12.88 11.09Q13.07 10.92 13.40 10.79L13.40 10.79L13.40 10.79Q13.72 10.66 14.07 10.58L14.07 10.58L14.07 10.58Q14.42 10.51 14.91 10.46L14.91 10.46L14.91 10.46Q15.41 10.42 15.88 10.40L15.88 10.40L15.88 10.40Q16.35 10.39 16.98 10.39L16.98 10.39L16.98 8.36L16.98 8.36Q16.98 8.01 16.65 7.88L16.65 7.88L16.65 7.88Q16.32 7.75 15.48 7.75L15.48 7.75L15.48 7.75Q14.90 7.75 14.60 7.77L14.60 7.77L14.60 7.77Q14.31 7.80 14.15 7.93L14.15 7.93L14.15 7.93Q14 8.07 13.98 8.20L13.98 8.20L13.98 8.20Q13.95 8.33 13.95 8.68L13.95 8.68L13.95 8.68Q13.94 8.81 13.94 8.89L13.94 8.89L12.89 8.85L12.89 8.85Q12.88 8.74 12.88 8.52L12.88 8.52L12.88 8.52Q12.88 8.07 13.01 7.75L13.01 7.75L13.01 7.75Q13.15 7.43 13.36 7.25L13.36 7.25L13.36 7.25Q13.57 7.07 13.94 6.97L13.94 6.97L13.94 6.97Q14.31 6.86 14.67 6.84L14.67 6.84L14.67 6.84Q15.03 6.81 15.57 6.81L15.57 6.81L15.57 6.81Q16.39 6.81 16.91 6.94L16.91 6.94L16.91 6.94Q17.42 7.06 17.75 7.39L17.75 7.39L17.75 7.39Q18.07 7.72 18.20 8.23L18.20 8.23L18.20 8.23Q18.33 8.74 18.33 9.56L18.33 9.56ZM16.98 12.37L16.98 12.37L16.98 11.20L16.98 11.20Q15.63 11.20 14.91 11.31L14.91 11.31L14.91 11.31Q14.18 11.41 13.94 11.59L13.94 11.59L13.94 11.59Q13.70 11.77 13.70 12.10L13.70 12.10L13.70 12.10Q13.70 12.11 13.70 12.14L13.70 12.14L13.70 12.14Q13.70 13.18 13.87 13.43L13.87 13.43L13.87 13.43Q14.04 13.69 14.92 13.69L14.92 13.69L14.92 13.69Q15.66 13.69 16.13 13.51L16.13 13.51L16.13 13.51Q16.59 13.33 16.77 13.05L16.77 13.05L16.77 13.05Q16.95 12.78 16.98 12.37ZM21.81 4.25L21.81 14.52L20.46 14.52L20.46 4.36L21.81 4.25ZM26.91 13.57L26.91 13.57L26.88 14.53L26.88 14.53Q26.30 14.62 25.84 14.62L25.84 14.62L25.84 14.62Q25.34 14.62 25.02 14.51L25.02 14.51L25.02 14.51Q24.69 14.40 24.53 14.16L24.53 14.16L24.53 14.16Q24.36 13.92 24.30 13.63L24.30 13.63L24.30 13.63Q24.24 13.34 24.24 12.89L24.24 12.89L24.24 7.79L23.22 7.79L23.22 7.02L24.24 7.02L24.24 4.89L25.58 4.78L25.58 7.02L26.96 7.02L26.96 7.79L25.58 7.79L25.58 12.43L25.58 12.43Q25.58 13.17 25.65 13.39L25.65 13.39L25.65 13.39Q25.72 13.61 26.04 13.61L26.04 13.61L26.04 13.61Q26.36 13.61 26.91 13.57ZM32.01 6.85L32.01 6.85L31.95 7.99L31.95 7.99Q31.69 7.96 31.46 7.96L31.46 7.96L31.46 7.96Q30.97 7.96 30.67 8.05L30.67 8.05L30.67 8.05Q30.37 8.15 30.22 8.38L30.22 8.38L30.22 8.38Q30.06 8.61 30.01 8.91L30.01 8.91L30.01 8.91Q29.96 9.21 29.96 9.71L29.96 9.71L29.96 9.71Q29.96 9.99 29.99 10.53L29.99 10.53L29.99 10.53Q30.01 11.07 30.01 11.30L30.01 11.30L30.01 14.52L28.66 14.52L28.66 7.02L29.89 7.02L30.02 7.86L30.02 7.86Q30.24 7.37 30.67 7.10L30.67 7.10L30.67 7.10Q31.10 6.83 31.70 6.83L31.70 6.83L31.70 6.83Q31.85 6.83 32.01 6.85ZM35.20 13.72L35.20 13.72L35.20 13.72Q35.20 14.21 34.92 14.47L34.92 14.47L34.92 14.47Q34.64 14.73 34.25 14.73L34.25 14.73L34.25 14.73Q33.87 14.73 33.57 14.46L33.57 14.46L33.57 14.46Q33.28 14.19 33.28 13.72L33.28 13.72L33.28 13.72Q33.28 13.24 33.55 12.98L33.55 12.98L33.55 12.98Q33.83 12.71 34.21 12.71L34.21 12.71L34.21 12.71Q34.61 12.71 34.90 12.98L34.90 12.98L34.90 12.98Q35.20 13.25 35.20 13.72ZM42.61 4.33L42.61 5.39L39.95 5.39L39.95 14.52L38.56 14.52L38.56 5.39L35.96 5.39L35.96 4.33L42.61 4.33ZM49.33 10.66L49.33 10.66L49.33 10.66Q48.51 10.75 48.31 10.76L48.31 10.76L44.58 10.76L44.58 10.76Q44.59 11.75 44.64 12.93L44.64 12.93L44.64 12.93Q44.67 13.39 45.03 13.54L45.03 13.54L45.03 13.54Q45.39 13.69 46.43 13.69L46.43 13.69L46.43 13.69Q46.82 13.69 47.10 13.65L47.10 13.65L47.10 13.65Q47.38 13.62 47.55 13.55L47.55 13.55L47.55 13.55Q47.73 13.47 47.83 13.40L47.83 13.40L47.83 13.40Q47.93 13.32 47.97 13.17L47.97 13.17L47.97 13.17Q48.02 13.02 48.04 12.91L48.04 12.91L48.04 12.91Q48.05 12.80 48.06 12.59L48.06 12.59L48.06 12.59Q48.08 12.37 48.10 12.24L48.10 12.24L49.14 12.43L49.14 12.43Q49.13 12.91 49.08 13.24L49.08 13.24L49.08 13.24Q49.02 13.57 48.89 13.82L48.89 13.82L48.89 13.82Q48.76 14.08 48.58 14.22L48.58 14.22L48.58 14.22Q48.41 14.37 48.10 14.46L48.10 14.46L48.10 14.46Q47.80 14.56 47.44 14.59L47.44 14.59L47.44 14.59Q47.08 14.62 46.55 14.62L46.55 14.62L46.55 14.62Q45.86 14.62 45.36 14.54L45.36 14.54L45.36 14.54Q44.85 14.46 44.49 14.35L44.49 14.35L44.49 14.35Q44.13 14.23 43.90 13.97L43.90 13.97L43.90 13.97Q43.67 13.71 43.53 13.47L43.53 13.47L43.53 13.47Q43.40 13.23 43.34 12.76L43.34 12.76L43.34 12.76Q43.28 12.30 43.26 11.92L43.26 11.92L43.26 11.92Q43.24 11.54 43.24 10.87L43.24 10.87L43.24 10.87Q43.24 9.93 43.27 9.40L43.27 9.40L43.27 9.40Q43.29 8.87 43.40 8.34L43.40 8.34L43.40 8.34Q43.51 7.81 43.70 7.57L43.70 7.57L43.70 7.57Q43.88 7.33 44.24 7.13L44.24 7.13L44.24 7.13Q44.60 6.92 45.10 6.87L45.10 6.87L45.10 6.87Q45.59 6.81 46.35 6.81L46.35 6.81L46.35 6.81Q46.87 6.81 47.26 6.84L47.26 6.84L47.26 6.84Q47.64 6.87 47.96 6.97L47.96 6.97L47.96 6.97Q48.28 7.06 48.49 7.18L48.49 7.18L48.49 7.18Q48.70 7.31 48.86 7.55L48.86 7.55L48.86 7.55Q49.02 7.79 49.11 8.04L49.11 8.04L49.11 8.04Q49.19 8.30 49.25 8.72L49.25 8.72L49.25 8.72Q49.30 9.15 49.31 9.58L49.31 9.58L49.31 9.58Q49.33 10.01 49.33 10.66ZM44.59 10.04L44.59 10.04L47.98 10.04L47.98 10.04Q47.97 9.17 47.91 8.44L47.91 8.44L47.91 8.44Q47.89 8.03 47.55 7.89L47.55 7.89L47.55 7.89Q47.22 7.75 46.34 7.75L46.34 7.75L46.34 7.75Q45.36 7.75 45.10 7.85L45.10 7.85L45.10 7.85Q44.99 7.89 44.90 7.97L44.90 7.97L44.90 7.97Q44.82 8.06 44.76 8.22L44.76 8.22L44.76 8.22Q44.71 8.37 44.68 8.51L44.68 8.51L44.68 8.51Q44.65 8.65 44.63 8.89L44.63 8.89L44.63 8.89Q44.61 9.13 44.60 9.27L44.60 9.27L44.60 9.27Q44.60 9.40 44.59 9.67L44.59 9.67L44.59 9.67Q44.59 9.95 44.59 10.04ZM56.83 9.18L56.83 9.18L55.73 9.37L55.58 8.42L55.58 8.42Q55.53 8.09 55.45 8.00L55.45 8.00L55.45 8.00Q55.28 7.79 54.47 7.77L54.47 7.77L54.47 7.77Q54.28 7.76 54.04 7.76L54.04 7.76L54.04 7.76Q53.12 7.76 52.83 7.86L52.83 7.86L52.83 7.86Q52.51 7.92 52.37 8.48L52.37 8.48L52.37 8.48Q52.23 9.05 52.23 9.87L52.23 9.87L52.23 11.05L52.23 11.05Q52.23 11.30 52.23 11.73L52.23 11.73L52.23 11.73Q52.23 12.29 52.23 12.52L52.23 12.52L52.23 12.52Q52.23 12.75 52.29 13.04L52.29 13.04L52.29 13.04Q52.36 13.33 52.44 13.40L52.44 13.40L52.44 13.40Q52.51 13.47 52.73 13.57L52.73 13.57L52.73 13.57Q52.95 13.67 53.20 13.67L53.20 13.67L53.20 13.67Q53.45 13.68 53.92 13.68L53.92 13.68L53.92 13.68Q54.29 13.68 54.56 13.65L54.56 13.65L54.56 13.65Q54.83 13.62 55.02 13.59L55.02 13.59L55.02 13.59Q55.21 13.55 55.33 13.46L55.33 13.46L55.33 13.46Q55.45 13.36 55.51 13.29L55.51 13.29L55.51 13.29Q55.58 13.21 55.61 13.05L55.61 13.05L55.61 13.05Q55.64 12.89 55.65 12.78L55.65 12.78L55.65 12.78Q55.67 12.66 55.68 12.42L55.68 12.42L55.68 12.42Q55.69 12.19 55.71 12.02L55.71 12.02L56.83 12.22L56.83 12.22Q56.79 12.75 56.74 13.07L56.74 13.07L56.74 13.07Q56.69 13.39 56.57 13.69L56.57 13.69L56.57 13.69Q56.45 13.99 56.27 14.15L56.27 14.15L56.27 14.15Q56.09 14.30 55.77 14.42L55.77 14.42L55.77 14.42Q55.45 14.55 55.03 14.58L55.03 14.58L55.03 14.58Q54.61 14.62 53.98 14.62L53.98 14.62L53.98 14.62Q53.53 14.62 53.17 14.59L53.17 14.59L53.17 14.59Q52.81 14.57 52.52 14.48L52.52 14.48L52.52 14.48Q52.23 14.40 52.01 14.32L52.01 14.32L52.01 14.32Q51.79 14.24 51.62 14.04L51.62 14.04L51.62 14.04Q51.45 13.84 51.34 13.70L51.34 13.70L51.34 13.70Q51.23 13.56 51.15 13.23L51.15 13.23L51.15 13.23Q51.08 12.91 51.04 12.69L51.04 12.69L51.04 12.69Q51.00 12.46 50.98 12.00L50.98 12.00L50.98 12.00Q50.96 11.54 50.95 11.22L50.95 11.22L50.95 11.22Q50.95 10.90 50.95 10.29L50.95 10.29L50.95 10.29Q50.95 9.74 50.97 9.34L50.97 9.34L50.97 9.34Q50.99 8.94 51.05 8.58L51.05 8.58L51.05 8.58Q51.11 8.21 51.21 7.97L51.21 7.97L51.21 7.97Q51.31 7.72 51.48 7.51L51.48 7.51L51.48 7.51Q51.65 7.30 51.86 7.18L51.86 7.18L51.86 7.18Q52.08 7.05 52.39 6.97L52.39 6.97L52.39 6.97Q52.71 6.88 53.09 6.84L53.09 6.84L53.09 6.84Q53.47 6.81 53.98 6.81L53.98 6.81L53.98 6.81Q54.63 6.81 55.07 6.87L55.07 6.87L55.07 6.87Q55.51 6.94 55.85 7.09L55.85 7.09L55.85 7.09Q56.19 7.24 56.39 7.52L56.39 7.52L56.39 7.52Q56.59 7.79 56.70 8.19L56.70 8.19L56.70 8.19Q56.81 8.59 56.83 9.18ZM64.61 10.22L64.61 14.52L63.27 14.52L63.27 9.97L63.27 9.97Q63.27 9.72 63.28 9.34L63.28 9.34L63.28 9.34Q63.29 8.97 63.29 8.85L63.29 8.85L63.29 8.85Q63.29 8.50 63.24 8.32L63.24 8.32L63.24 8.32Q63.18 8.13 63 7.99L63 7.99L63 7.99Q62.82 7.85 62.48 7.80L62.48 7.80L62.48 7.80Q62.15 7.75 61.56 7.75L61.56 7.75L61.56 7.75Q61.29 7.75 61.05 7.78L61.05 7.78L61.05 7.78Q60.81 7.81 60.59 7.89L60.59 7.89L60.59 7.89Q60.37 7.96 60.23 8.09L60.23 8.09L60.23 8.09Q60.09 8.22 60.08 8.39L60.08 8.39L60.08 8.39Q59.99 9.63 59.99 10.61L59.99 10.61L59.99 14.52L58.63 14.52L58.63 4.36L59.99 4.25L59.99 7.59L59.99 7.59Q60.48 6.81 62.02 6.81L62.02 6.81L62.02 6.81Q62.43 6.82 62.75 6.86L62.75 6.86L62.75 6.86Q63.08 6.90 63.33 6.97L63.33 6.97L63.33 6.97Q63.58 7.03 63.77 7.14L63.77 7.14L63.77 7.14Q63.96 7.25 64.10 7.36L64.10 7.36L64.10 7.36Q64.24 7.48 64.33 7.65L64.33 7.65L64.33 7.65Q64.43 7.83 64.48 7.99L64.48 7.99L64.48 7.99Q64.54 8.16 64.57 8.39L64.57 8.39L64.57 8.39Q64.60 8.63 64.61 8.84L64.61 8.84L64.61 8.84Q64.62 9.05 64.62 9.35L64.62 9.35L64.62 9.35Q64.62 9.48 64.62 9.77L64.62 9.77L64.62 9.77Q64.61 10.06 64.61 10.22L64.61 10.22Z"></path></g><!----><g data-v-423bf9ae="" id="e7a59cd2-dc22-4d89-899a-90006c89c412" transform="matrix(1.4569953680038452,0,0,1.4569953680038452,119.41410827636719,-18.981151580810547)" stroke="none" fill="white"><path d="M51.993 51.652l.398-.163c.59.409 1.223.316 1.828.234 1.225-.169 2.177-.593 3.438-.767 1.473-.204 4.797-2.02 4.262.635-.185.921-1.088 2.773-1.604 3.533-.587.856-1.43 1.235-2.378 1.434-.961.199-1.925-.406-2.818-.018-.758.33-1.335 1.579-1.77 2.295-1.049 1.714-1.889 7.632-3.043 9.255-.952 1.345-2.028 4.91-3.609 5.91h-.114c0 .708-.81.858-1.583.858s-1.584.064-1.584-.858h-.113c-1.581-1-2.657-4.565-3.609-5.909-1.153-1.623-1.995-7.657-3.043-9.37-.438-.717-1.014-1.909-1.771-2.238-.895-.39-1.858.249-2.817.05-.949-.197-1.792-.564-2.376-1.422-.518-.76-1.421-2.604-1.606-3.526-.535-2.654 2.788-.836 4.264-.633 1.261.176 2.213.596 3.437.764.604.083 1.24.176 1.827-.233l.399.157s2.738-1.737 2.682-2.336c-.004-.051-.02-.094-.034-.151.843.51 2.16.849 3.466.849h1.757c1.221 0 2.45-.279 3.293-.752a1.807 1.807 0 0 0-.075.324c-.056.597 2.896 2.078 2.896 2.078zm-11.338-2.486c-.143-.602-.739-1.461-.979-1.916-.135-.251-1.431-1.525-1.565-1.729a8.547 8.547 0 0 1-.62-1.06c-.198-.404-.39-.849-.572-1.294 0 0-.199-1.129-.285-1.358-.169-.458-.244-.921-.382-1.396-.131-.468-.332-1.165-.483-1.741-.2.196-.28 1.463-.319 1.768-.07.564-.039 1.124-.001 1.678.019.276.201 1.368.272 1.635.141.535.536 1.676.793 2.2.225.457-2.654-.838-3.568-2.025-.695-.9-2.956-2.6-5.345-5.806-.31-.415-1.235-1.313-1.279-1.899-.631.785.514 3.297.798 3.83.289.531.967 1.264 1.351 1.717a812.59 812.59 0 0 1 1.782 2.132c-.923-.496-1.648-.817-2.924-1.577-.35-.209-.643-.406-.906-.598-1.482-1.721-3.041-4.723-3.625-5.762-.59-1.053-1.12-2.098-1.414-3.191-.067-.239-.173-1.417-.202-1.712a2.235 2.235 0 0 1 .489-1.662.95.95 0 0 0-.503.159c-.155.1-.292.23-.405.373a3.574 3.574 0 0 0-.527.936c-.127.33-.224.669-.289 1.015a8.681 8.681 0 0 0-.095 1.089c.022.726.172 1.424.391 2.088.154.462.178.817.391 1.239-.486-.551-1.802-2.014-2.168-2.895-.122-.29-.288-1.351-.266-2.282.166-.848.347-1.505.56-2.438.042-.181.962-4.171 1.119-4.294.077-.063 1.09-1.946 1.173-2.02 0 0 .775-.94.874-1.121.096-.179 1.533-2.232 1.638-2.593.223-.764-.206-.96-.206-.96-.302-.132-.417-.084-.559-.062-.541.231-2.114 2.02-2.114 2.02-.679.764-1.27 1.127-1.27 1.127-.582.397-1.499-.022-1.869-.796a3.633 3.633 0 0 1-.153-1.137c.027-1.1.19-2.081.384-2.897.021-.096.438-2.046.381-2.863-.133.017-.964 1.188-1.205 1.771 0 0-.979 2.023-1.034 3.279-.164.983-.075 2.121.136 3.057.215.935.517 1.36.574 2.225.054.894.089 2.367.055 3.317-.038.955-.064 1.521-.491 2.43 0 0-.375 1.127-.466 1.516-.305 1.322-1.832-.195-1.832-.195-.807-.922-1.325-1.526-1.918-2.604-.276-.776-.232-1.238-.247-1.666-.029-1.151.273-3.507.411-4.659.127-1.11.195-4.159.037-6.396-.013-.179.009-.972-.108-1.305-.173.035-1.844 5.869-1.995 7.142-.142 1.172-.725 3.331-.757 4.606-1.596-1.19-1.979-2.516-1.979-2.516-.653.302-.254 2.161-.036 2.809.654 1.946 2.517 4.249 2.587 4.348.74 1.129 1.489 2.173 2.322 3.122.133.153 2.974 3.265 3.373 3.561.453.335 3.9 3.792 5.276 4.805.994.734 7.372 4.708 10.47 5.792 1.099.384 4.079 2.075 4.393 2.275.484.308 1.703 1.322 1.812 1.655l.073.03.399.163s2.738-1.725 2.682-2.319c-.005-.05-.021-.108-.035-.165zm42.01-26.075s-.386 1.325-1.982 2.516c-.029-1.275-.613-3.434-.754-4.606-.153-1.272-1.822-7.107-1.996-7.142-.115.333-.098 1.126-.106 1.305-.161 2.236-.094 5.285.034 6.396.14 1.152.441 3.508.412 4.659-.016.427.028.889-.247 1.666-.594 1.077-1.112 1.682-1.92 2.604 0 0-1.525 1.517-1.832.195-.089-.388-.463-1.516-.463-1.516-.431-.909-.456-1.475-.491-2.43-.036-.95 0-2.423.052-3.317.058-.864.36-1.29.575-2.225.21-.937.298-2.074.136-3.057-.055-1.256-1.032-3.279-1.032-3.279-.244-.583-1.072-1.754-1.206-1.771-.058.817.357 2.768.38 2.863.195.816.357 1.797.385 2.897.007.346-.028.726-.154 1.137-.369.774-1.286 1.193-1.865.796 0 0-.593-.363-1.271-1.127 0 0-1.574-1.789-2.116-2.02-.141-.022-.254-.07-.557.062 0 0-.429.196-.206.96.104.36 1.541 2.414 1.639 2.593.098.18.872 1.121.872 1.121.082.074 1.096 1.957 1.174 2.02.156.123 1.078 4.113 1.119 4.294.212.933.395 1.59.56 2.438.021.932-.146 1.992-.265 2.282-.368.88-1.683 2.343-2.17 2.895.212-.422.237-.777.391-1.239.218-.664.37-1.362.391-2.088a8.477 8.477 0 0 0-.097-1.089 5.48 5.48 0 0 0-.288-1.015 3.542 3.542 0 0 0-.526-.936 1.703 1.703 0 0 0-.403-.373.952.952 0 0 0-.507-.159c.466.588.538 1.178.491 1.662-.029.294-.136 1.473-.203 1.712-.293 1.094-.823 2.138-1.414 3.191-.582 1.04-2.141 4.041-3.625 5.762-.262.191-.555.388-.907.598-1.274.76-2 1.082-2.922 1.577 0 0 1.591-1.906 1.782-2.132.385-.453 1.062-1.186 1.348-1.717.286-.532 1.432-3.044.801-3.83-.044.586-.97 1.485-1.278 1.899-2.39 3.206-4.649 4.906-5.346 5.806-.913 1.188-3.794 2.482-3.568 2.025.259-.524.653-1.666.794-2.2.071-.267.254-1.358.273-1.635.036-.554.068-1.113-.006-1.678-.036-.305-.116-1.572-.317-1.768-.148.576-.351 1.273-.482 1.741-.136.475-.211.938-.382 1.396-.084.229-.286 1.358-.286 1.358-.183.445-.372.89-.57 1.294a9.103 9.103 0 0 1-.62 1.06c-.134.204-1.433 1.478-1.564 1.729-.225.428-.923 1.373-1.152 2.013a1.499 1.499 0 0 0-.075.29c-.056.597 2.896 2.1 2.896 2.1l.398-.163.075-.03c.106-.333 1.328-1.348 1.81-1.655.315-.2 3.295-1.892 4.394-2.275 3.099-1.084 9.479-5.058 10.47-5.792 1.378-1.014 4.826-4.47 5.276-4.805.4-.296 3.239-3.408 3.376-3.561.828-.949 1.58-1.993 2.318-3.122.071-.099 1.935-2.402 2.589-4.348.211-.651.613-2.509-.04-2.812z"></path></g><!----></svg>