<svg data-v-423bf9ae="" xmlns="http://www.w3.org/2000/svg" viewBox="0 0 368.18706868530165 60" class="font"><!----><!----><!----><g data-v-423bf9ae="" id="b21b3970-aa69-4214-afcf-da1a6d900aea" fill="white" transform="matrix(5.725191116333008,0,0,5.725191116333008,-1.7748159170150757,-24.332061767578125)"><path d="M10.25 4.33L11.54 4.33L9.38 14.52L7.90 14.52L5.95 6.50L4.03 14.52L2.55 14.52L0.31 4.33L1.77 4.33L3.37 12.61L5.32 4.33L6.69 4.33L8.70 12.61L10.25 4.33ZM18.33 9.56L18.33 14.52L17.26 14.52L17.04 13.45L17.04 13.45Q16.84 14.15 16.30 14.39L16.30 14.39L16.30 14.39Q15.76 14.62 14.73 14.62L14.73 14.62L14.73 14.62Q14.05 14.62 13.61 14.49L13.61 14.49L13.61 14.49Q13.17 14.36 12.91 14.04L12.91 14.04L12.91 14.04Q12.65 13.73 12.55 13.27L12.55 13.27L12.55 13.27Q12.46 12.82 12.46 12.10L12.46 12.10L12.46 12.10Q12.46 11.78 12.57 11.53L12.57 11.53L12.57 11.53Q12.68 11.27 12.88 11.09L12.88 11.09L12.88 11.09Q13.07 10.92 13.40 10.79L13.40 10.79L13.40 10.79Q13.72 10.66 14.07 10.58L14.07 10.58L14.07 10.58Q14.42 10.51 14.91 10.46L14.91 10.46L14.91 10.46Q15.41 10.42 15.88 10.40L15.88 10.40L15.88 10.40Q16.35 10.39 16.98 10.39L16.98 10.39L16.98 8.36L16.98 8.36Q16.98 8.01 16.65 7.88L16.65 7.88L16.65 7.88Q16.32 7.75 15.48 7.75L15.48 7.75L15.48 7.75Q14.90 7.75 14.60 7.77L14.60 7.77L14.60 7.77Q14.31 7.80 14.15 7.93L14.15 7.93L14.15 7.93Q14 8.07 13.98 8.20L13.98 8.20L13.98 8.20Q13.95 8.33 13.95 8.68L13.95 8.68L13.95 8.68Q13.94 8.81 13.94 8.89L13.94 8.89L12.89 8.85L12.89 8.85Q12.88 8.74 12.88 8.52L12.88 8.52L12.88 8.52Q12.88 8.07 13.01 7.75L13.01 7.75L13.01 7.75Q13.15 7.43 13.36 7.25L13.36 7.25L13.36 7.25Q13.57 7.07 13.94 6.97L13.94 6.97L13.94 6.97Q14.31 6.86 14.67 6.84L14.67 6.84L14.67 6.84Q15.03 6.81 15.57 6.81L15.57 6.81L15.57 6.81Q16.39 6.81 16.91 6.94L16.91 6.94L16.91 6.94Q17.42 7.06 17.75 7.39L17.75 7.39L17.75 7.39Q18.07 7.72 18.20 8.23L18.20 8.23L18.20 8.23Q18.33 8.74 18.33 9.56L18.33 9.56ZM16.98 12.37L16.98 12.37L16.98 11.20L16.98 11.20Q15.63 11.20 14.91 11.31L14.91 11.31L14.91 11.31Q14.18 11.41 13.94 11.59L13.94 11.59L13.94 11.59Q13.70 11.77 13.70 12.10L13.70 12.10L13.70 12.10Q13.70 12.11 13.70 12.14L13.70 12.14L13.70 12.14Q13.70 13.18 13.87 13.43L13.87 13.43L13.87 13.43Q14.04 13.69 14.92 13.69L14.92 13.69L14.92 13.69Q15.66 13.69 16.13 13.51L16.13 13.51L16.13 13.51Q16.59 13.33 16.77 13.05L16.77 13.05L16.77 13.05Q16.95 12.78 16.98 12.37ZM21.81 4.25L21.81 14.52L20.46 14.52L20.46 4.36L21.81 4.25ZM26.91 13.57L26.91 13.57L26.88 14.53L26.88 14.53Q26.30 14.62 25.84 14.62L25.84 14.62L25.84 14.62Q25.34 14.62 25.02 14.51L25.02 14.51L25.02 14.51Q24.69 14.40 24.53 14.16L24.53 14.16L24.53 14.16Q24.36 13.92 24.30 13.63L24.30 13.63L24.30 13.63Q24.24 13.34 24.24 12.89L24.24 12.89L24.24 7.79L23.22 7.79L23.22 7.02L24.24 7.02L24.24 4.89L25.58 4.78L25.58 7.02L26.96 7.02L26.96 7.79L25.58 7.79L25.58 12.43L25.58 12.43Q25.58 13.17 25.65 13.39L25.65 13.39L25.65 13.39Q25.72 13.61 26.04 13.61L26.04 13.61L26.04 13.61Q26.36 13.61 26.91 13.57ZM32.01 6.85L32.01 6.85L31.95 7.99L31.95 7.99Q31.69 7.96 31.46 7.96L31.46 7.96L31.46 7.96Q30.97 7.96 30.67 8.05L30.67 8.05L30.67 8.05Q30.37 8.15 30.22 8.38L30.22 8.38L30.22 8.38Q30.06 8.61 30.01 8.91L30.01 8.91L30.01 8.91Q29.96 9.21 29.96 9.71L29.96 9.71L29.96 9.71Q29.96 9.99 29.99 10.53L29.99 10.53L29.99 10.53Q30.01 11.07 30.01 11.30L30.01 11.30L30.01 14.52L28.66 14.52L28.66 7.02L29.89 7.02L30.02 7.86L30.02 7.86Q30.24 7.37 30.67 7.10L30.67 7.10L30.67 7.10Q31.10 6.83 31.70 6.83L31.70 6.83L31.70 6.83Q31.85 6.83 32.01 6.85ZM35.20 13.72L35.20 13.72L35.20 13.72Q35.20 14.21 34.92 14.47L34.92 14.47L34.92 14.47Q34.64 14.73 34.25 14.73L34.25 14.73L34.25 14.73Q33.87 14.73 33.57 14.46L33.57 14.46L33.57 14.46Q33.28 14.19 33.28 13.72L33.28 13.72L33.28 13.72Q33.28 13.24 33.55 12.98L33.55 12.98L33.55 12.98Q33.83 12.71 34.21 12.71L34.21 12.71L34.21 12.71Q34.61 12.71 34.90 12.98L34.90 12.98L34.90 12.98Q35.20 13.25 35.20 13.72ZM42.61 4.33L42.61 5.39L39.95 5.39L39.95 14.52L38.56 14.52L38.56 5.39L35.96 5.39L35.96 4.33L42.61 4.33ZM49.33 10.66L49.33 10.66L49.33 10.66Q48.51 10.75 48.31 10.76L48.31 10.76L44.58 10.76L44.58 10.76Q44.59 11.75 44.64 12.93L44.64 12.93L44.64 12.93Q44.67 13.39 45.03 13.54L45.03 13.54L45.03 13.54Q45.39 13.69 46.43 13.69L46.43 13.69L46.43 13.69Q46.82 13.69 47.10 13.65L47.10 13.65L47.10 13.65Q47.38 13.62 47.55 13.55L47.55 13.55L47.55 13.55Q47.73 13.47 47.83 13.40L47.83 13.40L47.83 13.40Q47.93 13.32 47.97 13.17L47.97 13.17L47.97 13.17Q48.02 13.02 48.04 12.91L48.04 12.91L48.04 12.91Q48.05 12.80 48.06 12.59L48.06 12.59L48.06 12.59Q48.08 12.37 48.10 12.24L48.10 12.24L49.14 12.43L49.14 12.43Q49.13 12.91 49.08 13.24L49.08 13.24L49.08 13.24Q49.02 13.57 48.89 13.82L48.89 13.82L48.89 13.82Q48.76 14.08 48.58 14.22L48.58 14.22L48.58 14.22Q48.41 14.37 48.10 14.46L48.10 14.46L48.10 14.46Q47.80 14.56 47.44 14.59L47.44 14.59L47.44 14.59Q47.08 14.62 46.55 14.62L46.55 14.62L46.55 14.62Q45.86 14.62 45.36 14.54L45.36 14.54L45.36 14.54Q44.85 14.46 44.49 14.35L44.49 14.35L44.49 14.35Q44.13 14.23 43.90 13.97L43.90 13.97L43.90 13.97Q43.67 13.71 43.53 13.47L43.53 13.47L43.53 13.47Q43.40 13.23 43.34 12.76L43.34 12.76L43.34 12.76Q43.28 12.30 43.26 11.92L43.26 11.92L43.26 11.92Q43.24 11.54 43.24 10.87L43.24 10.87L43.24 10.87Q43.24 9.93 43.27 9.40L43.27 9.40L43.27 9.40Q43.29 8.87 43.40 8.34L43.40 8.34L43.40 8.34Q43.51 7.81 43.70 7.57L43.70 7.57L43.70 7.57Q43.88 7.33 44.24 7.13L44.24 7.13L44.24 7.13Q44.60 6.92 45.10 6.87L45.10 6.87L45.10 6.87Q45.59 6.81 46.35 6.81L46.35 6.81L46.35 6.81Q46.87 6.81 47.26 6.84L47.26 6.84L47.26 6.84Q47.64 6.87 47.96 6.97L47.96 6.97L47.96 6.97Q48.28 7.06 48.49 7.18L48.49 7.18L48.49 7.18Q48.70 7.31 48.86 7.55L48.86 7.55L48.86 7.55Q49.02 7.79 49.11 8.04L49.11 8.04L49.11 8.04Q49.19 8.30 49.25 8.72L49.25 8.72L49.25 8.72Q49.30 9.15 49.31 9.58L49.31 9.58L49.31 9.58Q49.33 10.01 49.33 10.66ZM44.59 10.04L44.59 10.04L47.98 10.04L47.98 10.04Q47.97 9.17 47.91 8.44L47.91 8.44L47.91 8.44Q47.89 8.03 47.55 7.89L47.55 7.89L47.55 7.89Q47.22 7.75 46.34 7.75L46.34 7.75L46.34 7.75Q45.36 7.75 45.10 7.85L45.10 7.85L45.10 7.85Q44.99 7.89 44.90 7.97L44.90 7.97L44.90 7.97Q44.82 8.06 44.76 8.22L44.76 8.22L44.76 8.22Q44.71 8.37 44.68 8.51L44.68 8.51L44.68 8.51Q44.65 8.65 44.63 8.89L44.63 8.89L44.63 8.89Q44.61 9.13 44.60 9.27L44.60 9.27L44.60 9.27Q44.60 9.40 44.59 9.67L44.59 9.67L44.59 9.67Q44.59 9.95 44.59 10.04ZM56.83 9.18L56.83 9.18L55.73 9.37L55.58 8.42L55.58 8.42Q55.53 8.09 55.45 8.00L55.45 8.00L55.45 8.00Q55.28 7.79 54.47 7.77L54.47 7.77L54.47 7.77Q54.28 7.76 54.04 7.76L54.04 7.76L54.04 7.76Q53.12 7.76 52.83 7.86L52.83 7.86L52.83 7.86Q52.51 7.92 52.37 8.48L52.37 8.48L52.37 8.48Q52.23 9.05 52.23 9.87L52.23 9.87L52.23 11.05L52.23 11.05Q52.23 11.30 52.23 11.73L52.23 11.73L52.23 11.73Q52.23 12.29 52.23 12.52L52.23 12.52L52.23 12.52Q52.23 12.75 52.29 13.04L52.29 13.04L52.29 13.04Q52.36 13.33 52.44 13.40L52.44 13.40L52.44 13.40Q52.51 13.47 52.73 13.57L52.73 13.57L52.73 13.57Q52.95 13.67 53.20 13.67L53.20 13.67L53.20 13.67Q53.45 13.68 53.92 13.68L53.92 13.68L53.92 13.68Q54.29 13.68 54.56 13.65L54.56 13.65L54.56 13.65Q54.83 13.62 55.02 13.59L55.02 13.59L55.02 13.59Q55.21 13.55 55.33 13.46L55.33 13.46L55.33 13.46Q55.45 13.36 55.51 13.29L55.51 13.29L55.51 13.29Q55.58 13.21 55.61 13.05L55.61 13.05L55.61 13.05Q55.64 12.89 55.65 12.78L55.65 12.78L55.65 12.78Q55.67 12.66 55.68 12.42L55.68 12.42L55.68 12.42Q55.69 12.19 55.71 12.02L55.71 12.02L56.83 12.22L56.83 12.22Q56.79 12.75 56.74 13.07L56.74 13.07L56.74 13.07Q56.69 13.39 56.57 13.69L56.57 13.69L56.57 13.69Q56.45 13.99 56.27 14.15L56.27 14.15L56.27 14.15Q56.09 14.30 55.77 14.42L55.77 14.42L55.77 14.42Q55.45 14.55 55.03 14.58L55.03 14.58L55.03 14.58Q54.61 14.62 53.98 14.62L53.98 14.62L53.98 14.62Q53.53 14.62 53.17 14.59L53.17 14.59L53.17 14.59Q52.81 14.57 52.52 14.48L52.52 14.48L52.52 14.48Q52.23 14.40 52.01 14.32L52.01 14.32L52.01 14.32Q51.79 14.24 51.62 14.04L51.62 14.04L51.62 14.04Q51.45 13.84 51.34 13.70L51.34 13.70L51.34 13.70Q51.23 13.56 51.15 13.23L51.15 13.23L51.15 13.23Q51.08 12.91 51.04 12.69L51.04 12.69L51.04 12.69Q51.00 12.46 50.98 12.00L50.98 12.00L50.98 12.00Q50.96 11.54 50.95 11.22L50.95 11.22L50.95 11.22Q50.95 10.90 50.95 10.29L50.95 10.29L50.95 10.29Q50.95 9.74 50.97 9.34L50.97 9.34L50.97 9.34Q50.99 8.94 51.05 8.58L51.05 8.58L51.05 8.58Q51.11 8.21 51.21 7.97L51.21 7.97L51.21 7.97Q51.31 7.72 51.48 7.51L51.48 7.51L51.48 7.51Q51.65 7.30 51.86 7.18L51.86 7.18L51.86 7.18Q52.08 7.05 52.39 6.97L52.39 6.97L52.39 6.97Q52.71 6.88 53.09 6.84L53.09 6.84L53.09 6.84Q53.47 6.81 53.98 6.81L53.98 6.81L53.98 6.81Q54.63 6.81 55.07 6.87L55.07 6.87L55.07 6.87Q55.51 6.94 55.85 7.09L55.85 7.09L55.85 7.09Q56.19 7.24 56.39 7.52L56.39 7.52L56.39 7.52Q56.59 7.79 56.70 8.19L56.70 8.19L56.70 8.19Q56.81 8.59 56.83 9.18ZM64.61 10.22L64.61 14.52L63.27 14.52L63.27 9.97L63.27 9.97Q63.27 9.72 63.28 9.34L63.28 9.34L63.28 9.34Q63.29 8.97 63.29 8.85L63.29 8.85L63.29 8.85Q63.29 8.50 63.24 8.32L63.24 8.32L63.24 8.32Q63.18 8.13 63 7.99L63 7.99L63 7.99Q62.82 7.85 62.48 7.80L62.48 7.80L62.48 7.80Q62.15 7.75 61.56 7.75L61.56 7.75L61.56 7.75Q61.29 7.75 61.05 7.78L61.05 7.78L61.05 7.78Q60.81 7.81 60.59 7.89L60.59 7.89L60.59 7.89Q60.37 7.96 60.23 8.09L60.23 8.09L60.23 8.09Q60.09 8.22 60.08 8.39L60.08 8.39L60.08 8.39Q59.99 9.63 59.99 10.61L59.99 10.61L59.99 14.52L58.63 14.52L58.63 4.36L59.99 4.25L59.99 7.59L59.99 7.59Q60.48 6.81 62.02 6.81L62.02 6.81L62.02 6.81Q62.43 6.82 62.75 6.86L62.75 6.86L62.75 6.86Q63.08 6.90 63.33 6.97L63.33 6.97L63.33 6.97Q63.58 7.03 63.77 7.14L63.77 7.14L63.77 7.14Q63.96 7.25 64.10 7.36L64.10 7.36L64.10 7.36Q64.24 7.48 64.33 7.65L64.33 7.65L64.33 7.65Q64.43 7.83 64.48 7.99L64.48 7.99L64.48 7.99Q64.54 8.16 64.57 8.39L64.57 8.39L64.57 8.39Q64.60 8.63 64.61 8.84L64.61 8.84L64.61 8.84Q64.62 9.05 64.62 9.35L64.62 9.35L64.62 9.35Q64.62 9.48 64.62 9.77L64.62 9.77L64.62 9.77Q64.61 10.06 64.61 10.22L64.61 10.22Z"></path></g><!----><!----></svg>