<?xml version="1.0" encoding="UTF-8" standalone="no"?>
<svg
   xmlns:dc="http://purl.org/dc/elements/1.1/"
   xmlns:cc="http://creativecommons.org/ns#"
   xmlns:rdf="http://www.w3.org/1999/02/22-rdf-syntax-ns#"
   xmlns:svg="http://www.w3.org/2000/svg"
   xmlns="http://www.w3.org/2000/svg"
   xmlns:sodipodi="http://sodipodi.sourceforge.net/DTD/sodipodi-0.dtd"
   xmlns:inkscape="http://www.inkscape.org/namespaces/inkscape"
   data-v-fde0c5aa=""
   viewBox="0 0 300 300"
   class="iconAbove"
   version="1.1"
   id="svg16"
   sodipodi:docname="logoisolated.svg"
   inkscape:version="1.0.2 (e86c870879, 2021-01-15)">
  <metadata
     id="metadata20">
    <rdf:RDF>
      <cc:Work
         rdf:about="">
        <dc:format>image/svg+xml</dc:format>
        <dc:type
           rdf:resource="http://purl.org/dc/dcmitype/StillImage" />
        <dc:title></dc:title>
      </cc:Work>
    </rdf:RDF>
  </metadata>
  <sodipodi:namedview
     pagecolor="#ffffff"
     bordercolor="#666666"
     borderopacity="1"
     objecttolerance="10"
     gridtolerance="10"
     guidetolerance="10"
     inkscape:pageopacity="0"
     inkscape:pageshadow="2"
     inkscape:window-width="1708"
     inkscape:window-height="1369"
     id="namedview18"
     showgrid="false"
     inkscape:zoom="3.36"
     inkscape:cx="149.95198"
     inkscape:cy="153.88968"
     inkscape:window-x="8"
     inkscape:window-y="33"
     inkscape:window-maximized="0"
     inkscape:current-layer="svg16" />
  <!---->
  <defs
     data-v-fde0c5aa=""
     id="defs2">
    <!---->
  </defs>
  <defs
     data-v-fde0c5aa=""
     id="defs6">
    <!---->
  </defs>
  <defs
     data-v-fde0c5aa=""
     id="defs11">
    <!---->
  </defs>
  <g
     data-v-fde0c5aa=""
     id="5ff2106a-e8b4-4d0e-bdb2-a51a5aeac7ef"
     stroke="none"
     fill="#b07b12"
     transform="matrix(3.0652944,0,0,3.0652944,12.056564,15.208352)">
    <path
       d="m 51.993,51.652 0.398,-0.163 c 0.59,0.409 1.223,0.316 1.828,0.234 1.225,-0.169 2.177,-0.593 3.438,-0.767 1.473,-0.204 4.797,-2.02 4.262,0.635 -0.185,0.921 -1.088,2.773 -1.604,3.533 -0.587,0.856 -1.43,1.235 -2.378,1.434 -0.961,0.199 -1.925,-0.406 -2.818,-0.018 -0.758,0.33 -1.335,1.579 -1.77,2.295 C 52.3,60.549 51.46,66.467 50.306,68.09 49.354,69.435 48.278,73 46.697,74 h -0.114 c 0,0.708 -0.81,0.858 -1.583,0.858 -0.773,0 -1.584,0.064 -1.584,-0.858 h -0.113 c -1.581,-1 -2.657,-4.565 -3.609,-5.909 -1.153,-1.623 -1.995,-7.657 -3.043,-9.37 -0.438,-0.717 -1.014,-1.909 -1.771,-2.238 -0.895,-0.39 -1.858,0.249 -2.817,0.05 -0.949,-0.197 -1.792,-0.564 -2.376,-1.422 -0.518,-0.76 -1.421,-2.604 -1.606,-3.526 -0.535,-2.654 2.788,-0.836 4.264,-0.633 1.261,0.176 2.213,0.596 3.437,0.764 0.604,0.083 1.24,0.176 1.827,-0.233 l 0.399,0.157 c 0,0 2.738,-1.737 2.682,-2.336 -0.004,-0.051 -0.02,-0.094 -0.034,-0.151 0.843,0.51 2.16,0.849 3.466,0.849 h 1.757 c 1.221,0 2.45,-0.279 3.293,-0.752 a 1.807,1.807 0 0 0 -0.075,0.324 c -0.056,0.597 2.896,2.078 2.896,2.078 z M 40.655,49.166 C 40.512,48.564 39.916,47.705 39.676,47.25 39.541,46.999 38.245,45.725 38.111,45.521 a 8.547,8.547 0 0 1 -0.62,-1.06 c -0.198,-0.404 -0.39,-0.849 -0.572,-1.294 0,0 -0.199,-1.129 -0.285,-1.358 -0.169,-0.458 -0.244,-0.921 -0.382,-1.396 -0.131,-0.468 -0.332,-1.165 -0.483,-1.741 -0.2,0.196 -0.28,1.463 -0.319,1.768 -0.07,0.564 -0.039,1.124 -0.001,1.678 0.019,0.276 0.201,1.368 0.272,1.635 0.141,0.535 0.536,1.676 0.793,2.2 0.225,0.457 -2.654,-0.838 -3.568,-2.025 -0.695,-0.9 -2.956,-2.6 -5.345,-5.806 -0.31,-0.415 -1.235,-1.313 -1.279,-1.899 -0.631,0.785 0.514,3.297 0.798,3.83 0.289,0.531 0.967,1.264 1.351,1.717 a 812.59,812.59 0 0 1 1.782,2.132 c -0.923,-0.496 -1.648,-0.817 -2.924,-1.577 -0.35,-0.209 -0.643,-0.406 -0.906,-0.598 -1.482,-1.721 -3.041,-4.723 -3.625,-5.762 -0.59,-1.053 -1.12,-2.098 -1.414,-3.191 -0.067,-0.239 -0.173,-1.417 -0.202,-1.712 a 2.235,2.235 0 0 1 0.489,-1.662 0.95,0.95 0 0 0 -0.503,0.159 c -0.155,0.1 -0.292,0.23 -0.405,0.373 a 3.574,3.574 0 0 0 -0.527,0.936 c -0.127,0.33 -0.224,0.669 -0.289,1.015 a 8.681,8.681 0 0 0 -0.095,1.089 c 0.022,0.726 0.172,1.424 0.391,2.088 0.154,0.462 0.178,0.817 0.391,1.239 -0.486,-0.551 -1.802,-2.014 -2.168,-2.895 -0.122,-0.29 -0.288,-1.351 -0.266,-2.282 0.166,-0.848 0.347,-1.505 0.56,-2.438 0.042,-0.181 0.962,-4.171 1.119,-4.294 0.077,-0.063 1.09,-1.946 1.173,-2.02 0,0 0.775,-0.94 0.874,-1.121 0.096,-0.179 1.533,-2.232 1.638,-2.593 0.223,-0.764 -0.206,-0.96 -0.206,-0.96 -0.302,-0.132 -0.417,-0.084 -0.559,-0.062 -0.541,0.231 -2.114,2.02 -2.114,2.02 -0.679,0.764 -1.27,1.127 -1.27,1.127 -0.582,0.397 -1.499,-0.022 -1.869,-0.796 a 3.633,3.633 0 0 1 -0.153,-1.137 c 0.027,-1.1 0.19,-2.081 0.384,-2.897 0.021,-0.096 0.438,-2.046 0.381,-2.863 -0.133,0.017 -0.964,1.188 -1.205,1.771 0,0 -0.979,2.023 -1.034,3.279 -0.164,0.983 -0.075,2.121 0.136,3.057 0.215,0.935 0.517,1.36 0.574,2.225 0.054,0.894 0.089,2.367 0.055,3.317 -0.038,0.955 -0.064,1.521 -0.491,2.43 0,0 -0.375,1.127 -0.466,1.516 -0.305,1.322 -1.832,-0.195 -1.832,-0.195 -0.807,-0.922 -1.325,-1.526 -1.918,-2.604 -0.276,-0.776 -0.232,-1.238 -0.247,-1.666 -0.029,-1.151 0.273,-3.507 0.411,-4.659 0.127,-1.11 0.195,-4.159 0.037,-6.396 C 12.165,14.984 12.187,14.191 12.07,13.858 11.897,13.893 10.226,19.727 10.075,21 9.933,22.172 9.35,24.331 9.318,25.606 7.722,24.416 7.339,23.09 7.339,23.09 c -0.653,0.302 -0.254,2.161 -0.036,2.809 0.654,1.946 2.517,4.249 2.587,4.348 0.74,1.129 1.489,2.173 2.322,3.122 0.133,0.153 2.974,3.265 3.373,3.561 0.453,0.335 3.9,3.792 5.276,4.805 0.994,0.734 7.372,4.708 10.47,5.792 1.099,0.384 4.079,2.075 4.393,2.275 0.484,0.308 1.703,1.322 1.812,1.655 l 0.073,0.03 0.399,0.163 c 0,0 2.738,-1.725 2.682,-2.319 -0.005,-0.05 -0.021,-0.108 -0.035,-0.165 z m 42.01,-26.075 c 0,0 -0.386,1.325 -1.982,2.516 -0.029,-1.275 -0.613,-3.434 -0.754,-4.606 -0.153,-1.272 -1.822,-7.107 -1.996,-7.142 -0.115,0.333 -0.098,1.126 -0.106,1.305 -0.161,2.236 -0.094,5.285 0.034,6.396 0.14,1.152 0.441,3.508 0.412,4.659 -0.016,0.427 0.028,0.889 -0.247,1.666 -0.594,1.077 -1.112,1.682 -1.92,2.604 0,0 -1.525,1.517 -1.832,0.195 -0.089,-0.388 -0.463,-1.516 -0.463,-1.516 -0.431,-0.909 -0.456,-1.475 -0.491,-2.43 -0.036,-0.95 0,-2.423 0.052,-3.317 0.058,-0.864 0.36,-1.29 0.575,-2.225 0.21,-0.937 0.298,-2.074 0.136,-3.057 -0.055,-1.256 -1.032,-3.279 -1.032,-3.279 -0.244,-0.583 -1.072,-1.754 -1.206,-1.771 -0.058,0.817 0.357,2.768 0.38,2.863 0.195,0.816 0.357,1.797 0.385,2.897 0.007,0.346 -0.028,0.726 -0.154,1.137 -0.369,0.774 -1.286,1.193 -1.865,0.796 0,0 -0.593,-0.363 -1.271,-1.127 0,0 -1.574,-1.789 -2.116,-2.02 -0.141,-0.022 -0.254,-0.07 -0.557,0.062 0,0 -0.429,0.196 -0.206,0.96 0.104,0.36 1.541,2.414 1.639,2.593 0.098,0.18 0.872,1.121 0.872,1.121 0.082,0.074 1.096,1.957 1.174,2.02 0.156,0.123 1.078,4.113 1.119,4.294 0.212,0.933 0.395,1.59 0.56,2.438 0.021,0.932 -0.146,1.992 -0.265,2.282 -0.368,0.88 -1.683,2.343 -2.17,2.895 0.212,-0.422 0.237,-0.777 0.391,-1.239 0.218,-0.664 0.37,-1.362 0.391,-2.088 A 8.477,8.477 0 0 0 70.055,31.884 5.48,5.48 0 0 0 69.767,30.869 3.542,3.542 0 0 0 69.241,29.933 1.703,1.703 0 0 0 68.838,29.56 0.952,0.952 0 0 0 68.331,29.401 c 0.466,0.588 0.538,1.178 0.491,1.662 -0.029,0.294 -0.136,1.473 -0.203,1.712 -0.293,1.094 -0.823,2.138 -1.414,3.191 -0.582,1.04 -2.141,4.041 -3.625,5.762 -0.262,0.191 -0.555,0.388 -0.907,0.598 -1.274,0.76 -2,1.082 -2.922,1.577 0,0 1.591,-1.906 1.782,-2.132 0.385,-0.453 1.062,-1.186 1.348,-1.717 0.286,-0.532 1.432,-3.044 0.801,-3.83 -0.044,0.586 -0.97,1.485 -1.278,1.899 -2.39,3.206 -4.649,4.906 -5.346,5.806 -0.913,1.188 -3.794,2.482 -3.568,2.025 0.259,-0.524 0.653,-1.666 0.794,-2.2 0.071,-0.267 0.254,-1.358 0.273,-1.635 0.036,-0.554 0.068,-1.113 -0.006,-1.678 -0.036,-0.305 -0.116,-1.572 -0.317,-1.768 -0.148,0.576 -0.351,1.273 -0.482,1.741 -0.136,0.475 -0.211,0.938 -0.382,1.396 -0.084,0.229 -0.286,1.358 -0.286,1.358 -0.183,0.445 -0.372,0.89 -0.57,1.294 a 9.103,9.103 0 0 1 -0.62,1.06 C 51.76,45.726 50.461,47 50.33,47.251 c -0.225,0.428 -0.923,1.373 -1.152,2.013 a 1.499,1.499 0 0 0 -0.075,0.29 c -0.056,0.597 2.896,2.1 2.896,2.1 l 0.398,-0.163 0.075,-0.03 c 0.106,-0.333 1.328,-1.348 1.81,-1.655 0.315,-0.2 3.295,-1.892 4.394,-2.275 3.099,-1.084 9.479,-5.058 10.47,-5.792 1.378,-1.014 4.826,-4.47 5.276,-4.805 0.4,-0.296 3.239,-3.408 3.376,-3.561 0.828,-0.949 1.58,-1.993 2.318,-3.122 0.071,-0.099 1.935,-2.402 2.589,-4.348 0.211,-0.651 0.613,-2.509 -0.04,-2.812 z"
       id="path13" />
  </g>
  <!---->
</svg>
