<?xml version="1.0" encoding="UTF-8" standalone="no"?>
<svg
   version="1.1"
   width="730.74467"
   height="717.18571"
   viewBox="-4.24467 220.31429 730.74467 717.18571"
   id="svg2"
   sodipodi:docname="logooutlined.svg"
   inkscape:version="1.4.3 (0d15f75042, 2025-12-25)"
   xmlns:inkscape="http://www.inkscape.org/namespaces/inkscape"
   xmlns:sodipodi="http://sodipodi.sourceforge.net/DTD/sodipodi-0.dtd"
   xmlns="http://www.w3.org/2000/svg"
   xmlns:svg="http://www.w3.org/2000/svg">
  <sodipodi:namedview
     id="namedview2"
     pagecolor="#ffffff"
     bordercolor="#000000"
     borderopacity="0.25"
     inkscape:showpageshadow="2"
     inkscape:pageopacity="0.0"
     inkscape:pagecheckerboard="0"
     inkscape:deskcolor="#d1d1d1"
     inkscape:zoom="1.6522917"
     inkscape:cx="365.25028"
     inkscape:cy="358.59286"
     inkscape:window-width="3440"
     inkscape:window-height="1400"
     inkscape:window-x="0"
     inkscape:window-y="0"
     inkscape:window-maximized="1"
     inkscape:current-layer="svg2" />
  <defs
     id="defs1">
    <clipPath
       id="clipPath1">
      <rect
         x="-12.0447"
         y="634.08918"
         transform="scale(0.35241,0.34745)"
         width="2048"
         height="2048"
         id="clip-1"
         fill="none" />
    </clipPath>
  </defs>
  <g
     fill="none"
     fill-rule="nonzero"
     stroke="none"
     stroke-width="1"
     stroke-linecap="butt"
     stroke-linejoin="miter"
     stroke-miterlimit="10"
     font-family="none"
     font-weight="none"
     font-size="none"
     id="g2">
    <g
       id="g1">
      <g
         id="stage">
        <g
           id="Layer2-1">
          <g
             clip-path="url(#clip-1)"
             id="Group-16305-1">
            <path
               d="M291.89024,550.04055c1.29721,0.05003 19.01206,15.79516 21.71644,18.10844c1.15308,16.94484 1.49915,34.04605 2.57681,51.00826c0.31857,5.0171 0.52685,10.20095 0.62482,15.22847c-5.39713,7.86613 -18.11096,19.2623 -26.02921,24.91174c5.07891,5.52088 11.20481,10.45806 16.89973,15.35355c2.16872,1.8623 4.25427,3.38758 5.91728,5.72935c1.14426,26.1278 1.27501,55.20191 1.62283,81.52775l28.87138,-0.0139c-30.73632,27.75036 -45.26821,47.77008 -56.87865,86.9444c-3.25167,3.03319 -8.68228,6.14281 -12.41428,9.67631c-6.49136,6.14629 -9.05336,11.71581 -9.43326,20.50615c-14.36062,0.2849 -30.04772,0.89641 -44.28253,0.74701c2.52571,-10.30866 10.21349,-19.17891 19.77644,-23.95975c2.04396,-1.02148 6.72006,-2.23754 8.15084,-3.52308c2.68887,-2.41474 5.69632,-6.86202 7.87878,-9.83614c8.26537,-11.37532 26.05916,-41.74192 26.10286,-55.5285c0.07013,-22.10092 0.0282,-45.62635 0.02256,-67.83498l0.00281,-20.75631c0.0007,-9.29066 1.21441,-11.77141 -5.74953,-19.01909c-9.83289,-10.23223 -24.54311,-8.22053 -37.56458,-8.30044c-0.06449,10.38163 -0.50289,21.43382 -1.16083,31.80156c-0.78552,12.38291 3.84794,24.30371 12.48687,33.5353c-10.62827,-4.34305 -36.61765,-22.43794 -40.68867,-34.80694c-1.26761,-3.85316 -0.63223,-24.31761 -0.63857,-29.44588l-0.01621,-62.60247c16.92721,-21.80211 38.71765,-39.46965 63.68365,-51.63644c6.15939,-3.00053 12.20388,-5.22625 18.52221,-7.81436zM242.44881,650.8094c6.31762,-0.0417 15.55388,0.19805 21.52403,-0.17719c7.21625,-6.69525 15.6145,-14.19656 22.51112,-21.08985c-0.19311,-4.21797 -1.38285,-44.22616 -1.67676,-44.77512l-0.2696,-0.03127l-29.16845,19.3561c-3.54663,2.3383 -11.35988,7.19905 -14.48821,9.69022c-0.18784,4.82948 -1.22426,33.76461 -0.45037,36.83255c0.91097,0.15983 1.10233,0.20498 2.01824,0.19456z"
               id="CompoundPath-1-1-1"
               fill="#0e2559"
               style="stroke:#000000;stroke-width:3;stroke-dasharray:none;stroke-opacity:1" />
            <path
               d="M458.53025,643.07182c18.94193,-0.44473 35.37119,24.23422 42.25019,39.1083c15.56234,33.64301 45.54169,54.47229 78.00904,70.73266c8.50713,4.26314 17.76841,9.51302 26.87464,12.18139c-25.39804,-17.19849 -44.6219,-44.59097 -52.89644,-73.74153c-1.38144,-4.86769 -2.3118,-9.72148 -3.57694,-14.60307c6.805,5.23251 11.5308,8.14757 17.57811,14.94704c5.4447,6.12544 8.35912,12.40028 13.03205,18.80714c12.10169,16.60435 25.22537,31.42979 43.99814,40.849c3.25977,1.63646 7.54857,2.86294 11.03741,3.87401c2.18493,7.23031 3.37255,12.47671 6.36097,19.79388c2.67125,6.54584 5.19449,11.33015 8.26396,17.64669l12.73955,26.33626c2.17083,6.14281 17.89528,34.30662 17.33495,37.52743c-0.60614,3.48834 -3.88001,5.40623 -6.53717,7.3415c2.59373,4.44033 5.98036,9.49217 7.32656,14.34944c-7.36181,0.52117 -18.99126,0.10423 -26.65261,0.14593c-7.4781,0.0417 -19.14281,0.35439 -26.24383,-0.21194c2.45276,-13.94293 8.73972,-22.90699 22.8008,-27.3369c-4.28528,-12.12927 -11.94311,-26.48913 -17.76489,-37.98953c-5.30726,-10.48239 -12.39771,-25.82204 -23.78754,-30.57855c-10.74844,-4.48898 -24.02718,-6.60492 -35.30423,-9.84657c-28.24198,-7.59513 -54.89107,-20.19692 -79.87327,-35.11269c-12.12636,-7.24074 -17.67678,-13.93598 -32.61889,-16.76418c-14.54388,-2.75523 -20.59472,-0.99369 -34.70866,2.651c2.27656,-5.99688 7.41466,-14.29038 10.9035,-19.99541c12.50696,-20.44361 20.60178,-35.67555 21.45461,-60.11129z"
               id="Path-1-1-1"
               fill="#0e2559"
               style="stroke:#000000;stroke-width:3;stroke-dasharray:none;stroke-opacity:1" />
            <path
               d="M328.15972,577.93648c11.87015,5.06574 17.66727,7.14344 30.13511,10.29823c0.41231,34.22671 1.56117,69.55135 1.40258,103.63909c0.61671,-0.49337 1.21228,-1.00758 1.79023,-1.54264c6.9072,-6.48331 13.8743,-19.15459 14.23728,-28.70235c0.24316,-6.29916 0.19735,-12.85544 0.33832,-19.18587c0.42289,-15.62803 0.76825,-31.25954 1.02903,-46.89104c9.3071,2.14026 17.19398,5.29504 27.48782,7.02879c0.10925,3.83926 0.09868,7.85224 0.03877,11.70192c-0.33479,22.36497 0.50042,44.94188 0.09514,67.27906c9.20489,-11.19812 17.24686,-24.20642 17.1517,-39.12567c-0.01409,-2.47727 0.1621,-5.18387 0.23258,-7.68199l0.56738,-27.72951c1.903,0.20847 26.3143,4.3222 27.0896,4.71829l0.22201,0.8304c6.05437,39.06661 -10.79073,82.24001 -40.66083,107.99603c-8.2252,7.09133 -19.38243,15.14161 -29.50359,19.17196c-0.15153,-3.13742 0.14448,-8.23789 0.25373,-11.56294c0.30308,-7.49437 0.56033,-14.99221 0.77178,-22.49005c-8.69391,13.68582 -29.58113,30.93642 -43.90934,38.53154c-2.21312,1.17436 -6.24643,3.96434 -8.48176,3.34242c-0.60825,-4.58974 -0.35064,-14.55443 -0.35205,-19.59932l-0.00599,-36.05774c-0.00246,-37.78802 -0.3732,-76.22576 0.07048,-113.9686z"
               id="Path-1-1-1-1"
               fill="#0e2559"
               style="stroke:#000000;stroke-width:3;stroke-dasharray:none;stroke-opacity:1" />
            <path
               d="M336.81944,541.16995c1.33281,0.14072 10.95461,6.43919 12.75682,7.53641c22.03607,13.40926 46.06325,24.08099 71.93,27.48942c22.22637,2.92896 43.99109,1.2508 63.43696,14.66214c4.23947,2.92548 8.96878,5.39233 13.00033,8.80076c16.05571,-8.54712 34.4514,10.62136 49.02348,15.33618c15.05839,4.87116 22.79023,4.60711 37.9332,4.51677c-6.59708,14.45367 -34.8602,24.40794 -48.7345,14.35986c-3.15758,-2.28618 -6.02971,-5.55563 -9.65599,-7.16082c-4.65883,-2.06381 -10.49118,-1.67468 -15.2064,0.00348c6.63936,6.31654 12.88051,12.88323 17.64859,20.69377c7.97852,13.06737 9.57493,27.56274 13.49018,41.98167c2.35408,8.66525 5.39185,15.38135 9.42692,23.32739c4.3452,8.50891 10.42423,17.53203 15.56234,25.59273c-23.09682,-9.36362 -38.78251,-29.46326 -49.14683,-51.10555c-4.51435,-9.42268 -8.27101,-18.70638 -14.28309,-27.39944c-3.04833,-4.33957 -6.42793,-8.44636 -10.10707,-12.28215c-10.03658,-10.67 -17.72612,-15.41956 -32.4321,-18.16784c-0.29955,-5.4236 -0.13392,-11.96598 -0.12687,-17.47644c4.92314,-0.7887 13.40208,-0.58718 18.32169,0.12161c-18.57191,-12.89365 -42.38059,-12.5045 -63.20085,-17.59109c-33.95451,-8.29349 -84.81298,-21.64925 -108.64881,-48.13664c7.04394,-2.63467 21.32844,-4.61059 29.01199,-5.10222z"
               id="Path-1-1-1-2"
               fill="#0e2559"
               style="stroke:#000000;stroke-width:3;stroke-dasharray:none;stroke-opacity:1" />
            <path
               d="M160.9178,378.13529c13.72911,4.86734 24.83243,-0.37906 38.73141,3.39314c8.35524,2.26742 15.78435,5.80719 23.11338,10.28782c1.2218,0.747 5.84434,3.31704 7.08833,3.13359c11.10473,-1.6389 21.37284,-7.72264 32.97588,-7.36338c7.427,-0.40303 14.11781,2.83619 18.8711,8.39598c4.66976,5.46182 10.78686,6.64453 17.44632,8.65796c6.27004,1.91511 12.5637,3.75483 18.8792,5.5188c2.29277,0.64277 7.48234,1.75737 9.37159,2.80492c11.76232,6.52118 4.08969,20.06003 -2.37911,26.22021c-8.58289,6.01912 -19.34967,1.51903 -29.36933,4.30727c-3.79367,1.12746 -6.57347,3.88233 -10.02707,5.76479c-20.3794,11.10674 -46.87696,1.47282 -54.06221,-20.57077c-2.25118,-5.83706 0.1089,-11.93992 -8.49902,-11.46982c-9.00367,0.49198 -17.47485,2.3112 -26.37316,0.53297c-10.45489,-2.08918 -21.83344,-8.92897 -27.85046,-17.65224c-3.33343,-4.8326 -9.03821,-16.12835 -7.91685,-21.96125zM181.9118,392.36452c6.3659,5.81621 16.48811,12.3652 25.55663,12.07404l4.62888,-0.23348c-9.35679,-9.42963 -11.46312,-11.78809 -25.70499,-12.10599zM269.50316,413.32061c4.16124,-1.5093 5.3108,-1.91233 9.6789,-1.98773l0.77036,-0.00625c-0.28546,-1.03052 -2.00555,-1.8008 -3.02542,-2.41335c-4.98763,-2.99566 -12.44213,-4.54943 -18.26778,-4.02723c4.38748,2.18265 8.07155,4.24229 10.84395,8.43455z"
               id="CompoundPath-1-1-1-1"
               fill="#0e2559"
               style="stroke:#000000;stroke-width:3;stroke-dasharray:none;stroke-opacity:1" />
            <path
               d="M178.14526,689.58068c8.60193,8.82508 15.80233,16.68078 24.91243,25.42247c-4.83468,22.98342 -3.88566,35.66861 6.5065,56.95304c0.10749,-15.86777 0.34677,-33.36506 2.23709,-49.13554c3.70593,2.99149 7.66029,7.13998 11.43106,10.37816c5.48101,4.70439 8.21604,6.16365 14.41841,9.56513c-0.51028,12.74773 -0.94727,25.49545 -1.31025,38.25012c-1.64187,2.3105 -9.88751,9.33234 -12.94253,12.65391c-13.70761,14.74205 -23.63177,32.50339 -28.9408,51.80392l-1.79658,7.11913c-13.63749,6.03858 -18.6001,12.25782 -24.06559,25.55451c-14.23447,-0.32312 -28.86327,0.17719 -43.18796,0.00347c2.29806,-9.07523 9.1485,-17.87252 17.65951,-22.07659c1.88926,-1.20564 6.38846,-1.98391 7.94222,-3.30419c26.6142,-22.16693 39.41825,-59.98621 32.77782,-93.63964c-5.06657,-25.67264 -10.09439,-42.77036 -5.64135,-69.54788z"
               id="Path-1-1-1-3"
               fill="#0e2559"
               style="stroke:#000000;stroke-width:3;stroke-dasharray:none;stroke-opacity:1" />
            <path
               d="M445.52286,729.04337c8.67276,-0.65667 20.35862,0.79565 27.56184,6.51805c1.91005,1.51833 3.7179,8.49154 5.4165,11.16686c7.89394,12.42807 22.87128,24.92215 36.02315,31.70079c-7.65783,8.09197 -17.0354,16.02064 -25.05621,24.52607c-16.78167,17.79956 -28.28426,33.69166 -41.35508,54.0762c-8.17234,2.15763 -14.04346,5.80231 -15.22403,15.1972c-0.26078,2.08814 0.27841,4.43686 -0.92683,6.20188c-3.50999,1.2369 -40.77361,0.59759 -47.22267,0.45167c1.72328,-7.98079 5.91693,-14.36681 12.20037,-19.58542c6.11428,-5.2464 12.84175,-6.57711 20.45023,-7.99468c17.84594,-17.54245 34.00032,-36.9472 44.01929,-59.95842c5.08877,-11.68454 -6.46669,-14.51274 -14.52979,-19.03994c-14.55445,-8.31781 -26.07114,-20.96129 -32.89729,-36.12028c4.36633,-1.99432 13.13777,-4.31178 18.1032,-5.74672c6.29048,15.94421 15.43548,27.03115 32.46383,32.33662c-7.67192,-6.73694 -14.26196,-17.21933 -18.27941,-26.44398c-0.76825,-1.76154 -1.73385,-4.12068 -1.79023,-6.05594c-0.01409,-0.47947 0.66253,-0.88251 1.04313,-1.22996z"
               id="Path-1-1-1-4"
               fill="#0e2559"
               style="stroke:#000000;stroke-width:3;stroke-dasharray:none;stroke-opacity:1" />
            <path
               d="M163.86993,279.09741l0.08316,0.16503c-0.08316,0.85402 -3.8201,5.90203 -4.56122,7.21016c-14.2757,25.19456 -4.21092,55.82002 23.15391,67.08207c-3.15723,-14.15557 0.69354,-28.25276 12.61551,-37.2665c-11.48992,23.69534 3.49836,49.51148 30.28912,51.05656c-5.30409,-13.84495 -0.53248,-34.73606 12.76739,-42.78669c-3.44127,8.32198 -5.45739,21.14232 -3.42541,30.03098c2.45734,10.74922 12.09852,23.26694 21.88313,28.51995c0.04652,0.17372 -0.06802,0.35369 -0.11665,0.52707l-1.40258,0.14905c-7.15389,0.71504 -12.9968,2.8487 -19.46032,5.9201c-14.65665,-12.93917 -36.50313,-13.90888 -54.75399,-18.28807c-15.31636,-4.07656 -31.41858,-8.93313 -43.95232,-18.779c-18.67798,-14.67256 -26.09335,-39.13854 -9.95905,-58.61069c-6.61752,18.27382 -2.00273,36.75333 17.51362,44.27862c-1.2729,-4.04911 -2.58245,-8.21809 -3.01203,-12.44232c-1.91746,-18.8683 6.05297,-36.79328 22.33774,-46.76632z"
               id="Path-1-1-1-5"
               fill="#b78a28"
               style="stroke-width:3;stroke-dasharray:none;stroke:#000000;stroke-opacity:1" />
            <path
               d="M265.11041,462.90644c4.59575,-0.04273 9.19186,-0.05942 13.78796,-0.05073c1.2877,24.01916 11.03882,44.73968 29.92895,60.41288c5.11766,4.24611 10.73364,7.35782 16.53992,10.53659c-9.19115,1.42382 -20.65675,4.29859 -29.53356,6.83423c-15.25187,4.68354 -22.83323,8.23025 -36.98417,14.88207c-1.90019,-4.98617 -3.6453,-11.51186 -4.73742,-16.76938c-4.49919,-21.48177 -2.61134,-43.78803 5.43625,-64.23789c1.32646,-3.32469 3.64425,-8.72814 5.56206,-11.60776z"
               id="Path-1-1-1-6"
               fill="#0e2559"
               style="stroke:#000000;stroke-width:3;stroke-dasharray:none;stroke-opacity:1" />
            <path
               d="M253.63036,469.77019c0.48774,0.67231 -3.81834,15.28302 -4.30431,17.359c-5.42638,23.18529 -6.11428,50.38425 1.5513,73.16268c-2.71213,1.27685 -6.73521,3.96295 -9.30744,5.67828c-14.34794,9.58981 -27.35074,21.00335 -38.67291,33.94564l-3.43104,3.9539c-0.10854,-47.23259 21.1709,-99.88877 54.1644,-134.09951z"
               id="Path-1-1-1-7"
               fill="#0e2559"
               style="stroke:#000000;stroke-width:3;stroke-dasharray:none;stroke-opacity:1" />
            <path
               d="M165.72288,564.47719c0.58641,1.38699 1.13371,11.10014 1.81068,14.08121c4.44703,19.58195 14.96042,34.09816 31.89328,44.90715c0.09832,13.45651 -0.48457,27.68087 -0.62201,41.22076c-0.0888,8.75907 0.24246,21.06901 -0.39328,29.43894c-1.23942,-0.81997 -2.5102,-1.74765 -3.73094,-2.60236c-14.37966,-12.13622 -26.29563,-35.17523 -31.52361,-53.00259c-6.24291,-21.29137 -8.57268,-54.23255 2.56588,-74.04311z"
               id="Path-1-1-1-8"
               fill="#0e2559"
               style="stroke:#000000;stroke-width:3;stroke-dasharray:none;stroke-opacity:1" />
            <path
               d="M212.73869,422.68353c3.69007,-0.31895 8.72598,-0.17998 12.52141,-0.18032c1.74125,7.51243 3.88389,14.18093 8.15225,20.79175c4.933,7.64029 14.57772,14.59995 23.62932,16.42125c-2.59831,3.0443 -6.26688,6.02398 -9.07522,9.10616c-14.11676,15.49392 -26.71887,28.5401 -36.86152,47.08978c-6.11816,11.14913 -9.07838,19.83872 -12.85162,31.97285c-0.75133,-6.37804 -0.22413,-17.15331 0.57266,-23.71201c2.07498,-17.0807 4.11753,-34.3657 6.10758,-51.45369c1.24576,-10.6985 3.50047,-21.50886 5.09441,-32.15282c0.45178,-3.01442 1.72503,-16.58802 2.71072,-17.88295z"
               id="Path-1-1-1-9"
               fill="#0e2559"
               style="stroke:#000000;stroke-width:3;stroke-dasharray:none;stroke-opacity:1" />
            <path
               d="M201.6611,454.05773c0.10784,0.55174 -6.66545,38.6125 -7.28216,43.10599c-4.60879,33.32475 -6.54738,66.95595 -5.79781,100.58055c-2.67195,-3.92611 -5.14904,-7.97732 -7.42277,-12.1397c-12.17746,-22.71658 -15.60816,-50.98777 -8.80281,-75.86059c5.80204,-21.20521 15.61274,-38.53676 29.30555,-55.68625z"
               id="Path-1-1-1-10"
               fill="#0e2559"
               style="stroke:#000000;stroke-width:3;stroke-dasharray:none;stroke-opacity:1" />
            <path
               d="M349.94629,306.66675c1.92415,2.04957 3.22101,6.18242 3.90468,8.89908c5.81473,23.10225 -7.57817,46.4234 -31.12784,52.66002c-16.52864,4.3771 -32.36481,5.70329 -42.73336,21.83095c-4.93512,-3.16313 -8.93988,-4.48967 -14.41841,-6.1654c8.56704,-3.59326 19.39055,-11.20749 20.19439,-21.09506c0.78587,-9.6645 -1.81103,-17.99587 -7.91297,-25.56389c7.3248,2.40501 8.89301,4.27599 13.72735,10.0175c3.47651,6.36969 3.86098,8.63434 4.96825,15.78092c15.38332,-1.9641 18.29491,-16.84825 9.95095,-28.0707c8.27243,4.98478 12.42344,8.59437 12.52529,19.00414c2.77733,-4.31039 5.04472,-7.81645 6.20344,-12.84432c3.28338,-14.24486 -2.71531,-25.59759 -13.92999,-34.03457c5.17053,2.04193 9.51326,3.64121 13.81897,7.26262c10.64237,8.9519 13.78373,20.41025 11.0998,33.51758c11.92725,-11.83603 14.00081,-24.86032 13.72946,-41.19888z"
               id="Path-1-1-1-11"
               fill="#b78a28"
               style="stroke-width:3;stroke-dasharray:none;stroke:#000000;stroke-opacity:1" />
          </g>
        </g>
      </g>
    </g>
  </g>
</svg>
