<?xml version="1.0" encoding="UTF-8" standalone="no"?>
<!DOCTYPE svg PUBLIC "-//W3C//DTD SVG 1.1//EN" "http://www.w3.org/Graphics/SVG/1.1/DTD/svg11.dtd">
<svg xmlns="http://www.w3.org/2000/svg" version="1.1" viewBox="0.00 0.00 800.00 800.00">
<g stroke-width="2.00" fill="none" stroke-linecap="butt">
<path stroke="#dbc592" vector-effect="non-scaling-stroke" d="
  M 210.58 450.62
  Q 209.60 449.50 205.40 446.62
  C 196.47 440.47 188.62 433.27 181.74 424.76
  Q 170.93 411.38 161.79 396.74
  A 0.49 0.49 0.0 0 1 162.04 396.02
  Q 178.39 390.15 179.61 373.04
  C 180.22 364.55 175.88 354.85 167.80 351.00
  Q 163.43 348.91 157.75 348.76
  Q 126.31 347.94 89.02 348.33
  Q 85.50 348.37 79.69 348.56
  A 0.64 0.64 0.0 0 0 79.28 349.67
  L 83.97 354.00
  A 1.02 1.01 -68.5 0 1 84.29 354.74
  Q 83.89 394.12 82.88 421.50
  Q 82.66 427.36 80.92 431.34
  A 0.65 0.65 0.0 0 0 81.52 432.25
  L 119.13 432.25
  A 0.35 0.35 0.0 0 0 119.41 431.70
  C 117.90 429.58 114.96 426.67 114.90 424.24
  Q 114.65 413.04 115.15 363.66
  A 0.60 0.59 -0.0 0 1 115.75 363.07
  C 124.32 363.06 132.67 363.04 140.49 365.97
  C 147.92 368.74 151.51 378.46 145.67 384.45
  C 139.75 390.52 131.56 392.06 123.02 393.98
  A 1.57 1.57 0.0 0 0 121.91 396.11
  Q 122.18 396.79 122.96 397.51
  Q 128.67 402.80 130.92 405.60
  C 143.96 421.90 156.59 440.22 176.82 447.86
  Q 184.33 450.70 193.26 451.36
  Q 201.94 451.99 210.14 451.65
  A 0.62 0.62 0.0 0 0 210.58 450.62"
/>
<path stroke="#dbc592" vector-effect="non-scaling-stroke" d="
  M 227.57 348.26
  L 183.21 348.26
  A 0.49 0.49 0.0 0 0 182.89 349.12
  C 190.62 355.68 193.68 361.96 199.08 371.98
  Q 218.09 407.26 231.94 431.69
  A 0.78 0.78 0.0 0 0 232.64 432.09
  L 241.71 431.94
  A 0.87 0.87 0.0 0 0 242.43 431.53
  L 266.16 393.32
  A 0.55 0.54 -46.6 0 1 267.07 393.29
  Q 277.33 407.80 290.80 429.21
  C 292.95 432.62 295.89 432.39 299.46 432.26
  A 1.47 1.46 12.3 0 0 300.72 431.46
  Q 317.69 397.87 331.30 372.45
  Q 336.41 362.89 338.47 359.71
  Q 342.15 354.03 348.11 348.86
  A 0.50 0.49 -65.9 0 0 347.78 347.99
  L 308.06 348.64
  A 0.48 0.48 0.0 0 0 307.86 349.56
  Q 310.73 350.96 311.81 351.66
  C 316.38 354.62 314.17 359.24 311.99 362.98
  Q 303.24 378.00 295.93 391.24
  A 0.24 0.24 0.0 0 1 295.52 391.25
  L 270.89 350.91
  A 1.86 1.85 -31.0 0 0 268.36 350.29
  Q 266.78 351.22 265.42 353.20
  Q 254.53 368.91 244.83 385.07
  Q 243.73 386.90 240.51 391.14
  A 0.97 0.96 -41.3 0 1 238.91 391.04
  Q 229.67 374.99 222.38 359.07
  Q 220.79 355.59 224.12 352.59
  Q 225.33 351.50 227.81 348.80
  A 0.32 0.32 0.0 0 0 227.57 348.26"
/>
<path stroke="#dbc592" vector-effect="non-scaling-stroke" d="
  M 357.49 431.85
  Q 356.57 429.56 357.49 427.23
  Q 359.58 421.92 362.78 415.75
  A 0.93 0.90 -75.9 0 1 363.59 415.25
  L 396.95 415.25
  A 0.94 0.93 -12.3 0 1 397.80 415.79
  C 399.89 420.12 403.65 426.70 402.93 431.71
  A 0.47 0.47 0.0 0 0 403.40 432.25
  L 441.43 432.25
  A 0.24 0.23 -25.9 0 0 441.58 431.83
  L 436.18 427.67
  A 1.75 1.29 80.0 0 1 435.99 427.49
  C 429.62 420.02 424.99 411.06 419.03 399.96
  Q 414.08 390.75 391.81 348.79
  A 1.05 1.04 -13.5 0 0 390.88 348.23
  L 373.33 348.23
  A 0.73 0.72 -75.0 0 0 372.70 348.60
  Q 353.39 381.89 334.30 415.30
  Q 332.17 419.02 329.14 423.59
  C 327.10 426.67 324.15 428.83 321.36 431.12
  A 0.40 0.39 -67.0 0 0 321.64 431.82
  C 323.97 431.62 326.17 432.36 328.46 432.26
  Q 328.93 432.24 357.22 432.26
  A 0.30 0.29 79.1 0 0 357.49 431.85"
/>
<path stroke="#dbc592" vector-effect="non-scaling-stroke" d="
  M 533.09 431.75
  Q 533.43 431.86 538.07 431.76
  Q 539.78 431.73 543.44 431.93
  Q 557.28 432.68 572.23 431.97
  A 0.53 0.53 0.0 0 0 572.46 430.97
  C 569.66 429.45 568.77 427.43 568.72 424.03
  Q 568.39 397.65 568.56 361.90
  A 0.59 0.58 -1.6 0 1 569.12 361.32
  C 578.94 360.83 587.69 361.35 595.14 368.34
  Q 597.40 370.47 598.96 371.63
  A 0.83 0.83 0.0 0 0 600.29 370.96
  L 600.29 348.74
  A 0.51 0.51 0.0 0 0 599.78 348.23
  L 502.27 348.23
  A 0.30 0.30 0.0 0 0 501.97 348.53
  L 501.34 372.28
  A 0.82 0.82 0.0 0 0 502.46 373.07
  Q 503.43 372.69 504.25 371.99
  C 510.24 366.83 515.56 361.78 523.56 361.14
  C 526.72 360.89 531.55 360.86 535.16 361.06
  A 0.68 0.67 -89.1 0 1 535.80 361.73
  Q 535.97 400.12 535.61 424.00
  Q 535.54 428.38 532.93 431.16
  A 0.36 0.36 0.0 0 0 533.09 431.75"
/>
<path stroke="#dbc592" vector-effect="non-scaling-stroke" d="
  M 743.10 449.79
  C 740.59 446.84 733.34 443.35 729.37 440.06
  Q 716.17 429.12 708.80 418.44
  Q 696.41 400.49 693.35 396.18
  A 0.59 0.59 0.0 0 1 693.56 395.32
  C 701.29 391.29 707.39 387.46 710.36 378.73
  Q 714.65 366.13 706.33 356.00
  Q 703.54 352.61 696.89 349.36
  A 3.85 3.74 -29.3 0 0 695.49 348.99
  Q 692.81 348.81 688.50 348.69
  Q 661.68 347.94 619.25 348.35
  Q 618.88 348.35 611.95 348.50
  A 0.51 0.51 0.0 0 0 611.58 349.34
  L 616.03 354.48
  A 1.62 1.58 -65.6 0 1 616.42 355.56
  Q 615.56 390.57 614.51 417.00
  Q 614.28 422.87 613.45 428.22
  A 4.28 4.18 65.8 0 1 612.86 429.83
  L 611.66 431.75
  A 0.34 0.34 0.0 0 0 611.95 432.27
  L 649.86 432.27
  A 0.78 0.77 -24.1 0 0 650.38 430.92
  C 646.09 427.08 646.37 420.56 646.28 414.00
  Q 646.11 401.94 646.21 363.93
  A 0.44 0.44 0.0 0 1 646.59 363.49
  Q 650.63 362.94 653.51 362.66
  C 662.04 361.82 681.21 364.35 680.16 376.64
  C 679.22 387.70 663.13 391.37 654.41 392.92
  A 1.27 1.26 -22.8 0 0 653.60 394.90
  C 655.69 397.82 658.99 400.63 661.67 403.74
  Q 664.95 407.55 673.25 418.13
  C 680.99 427.99 687.00 433.88 696.51 439.56
  Q 717.61 452.19 742.76 450.58
  A 0.48 0.48 0.0 0 0 743.10 449.79"
/>
<path stroke="#dbc592" vector-effect="non-scaling-stroke" d="
  M 450.56 432.26
  L 522.53 432.26
  A 0.57 0.57 0.0 0 0 523.10 431.69
  L 523.10 410.68
  A 0.31 0.30 -24.0 0 0 522.57 410.48
  L 513.55 420.25
  A 1.54 1.51 20.5 0 1 512.45 420.74
  L 481.27 421.26
  A 0.61 0.61 0.0 0 1 480.65 420.65
  L 480.65 356.03
  A 1.04 1.04 0.0 0 1 480.93 355.32
  L 486.28 349.52
  A 0.43 0.43 0.0 0 0 485.97 348.80
  L 448.13 348.80
  A 0.36 0.36 0.0 0 0 447.83 349.35
  L 452.36 356.13
  A 1.43 1.42 28.4 0 1 452.60 356.92
  Q 452.79 392.64 452.42 420.75
  Q 452.31 429.07 450.33 431.80
  A 0.29 0.29 0.0 0 0 450.56 432.26"
/>
<path stroke="#dbc592" vector-effect="non-scaling-stroke" d="
  M 380.78 381.31
  L 370.97 400.18
  A 0.65 0.65 0.0 0 0 371.43 401.12
  Q 375.49 401.86 378.76 401.72
  Q 384.19 401.48 390.56 401.32
  A 0.29 0.29 0.0 0 0 390.82 400.91
  L 381.64 381.33
  A 0.48 0.48 0.0 0 0 380.78 381.31"
/>
</g>
<path fill="#ffffff" d="
  M 800.00 0.00
  L 800.00 800.00
  L 0.00 800.00
  L 0.00 0.00
  L 800.00 0.00
  Z
  M 210.58 450.62
  Q 209.60 449.50 205.40 446.62
  C 196.47 440.47 188.62 433.27 181.74 424.76
  Q 170.93 411.38 161.79 396.74
  A 0.49 0.49 0.0 0 1 162.04 396.02
  Q 178.39 390.15 179.61 373.04
  C 180.22 364.55 175.88 354.85 167.80 351.00
  Q 163.43 348.91 157.75 348.76
  Q 126.31 347.94 89.02 348.33
  Q 85.50 348.37 79.69 348.56
  A 0.64 0.64 0.0 0 0 79.28 349.67
  L 83.97 354.00
  A 1.02 1.01 -68.5 0 1 84.29 354.74
  Q 83.89 394.12 82.88 421.50
  Q 82.66 427.36 80.92 431.34
  A 0.65 0.65 0.0 0 0 81.52 432.25
  L 119.13 432.25
  A 0.35 0.35 0.0 0 0 119.41 431.70
  C 117.90 429.58 114.96 426.67 114.90 424.24
  Q 114.65 413.04 115.15 363.66
  A 0.60 0.59 -0.0 0 1 115.75 363.07
  C 124.32 363.06 132.67 363.04 140.49 365.97
  C 147.92 368.74 151.51 378.46 145.67 384.45
  C 139.75 390.52 131.56 392.06 123.02 393.98
  A 1.57 1.57 0.0 0 0 121.91 396.11
  Q 122.18 396.79 122.96 397.51
  Q 128.67 402.80 130.92 405.60
  C 143.96 421.90 156.59 440.22 176.82 447.86
  Q 184.33 450.70 193.26 451.36
  Q 201.94 451.99 210.14 451.65
  A 0.62 0.62 0.0 0 0 210.58 450.62
  Z
  M 227.57 348.26
  L 183.21 348.26
  A 0.49 0.49 0.0 0 0 182.89 349.12
  C 190.62 355.68 193.68 361.96 199.08 371.98
  Q 218.09 407.26 231.94 431.69
  A 0.78 0.78 0.0 0 0 232.64 432.09
  L 241.71 431.94
  A 0.87 0.87 0.0 0 0 242.43 431.53
  L 266.16 393.32
  A 0.55 0.54 -46.6 0 1 267.07 393.29
  Q 277.33 407.80 290.80 429.21
  C 292.95 432.62 295.89 432.39 299.46 432.26
  A 1.47 1.46 12.3 0 0 300.72 431.46
  Q 317.69 397.87 331.30 372.45
  Q 336.41 362.89 338.47 359.71
  Q 342.15 354.03 348.11 348.86
  A 0.50 0.49 -65.9 0 0 347.78 347.99
  L 308.06 348.64
  A 0.48 0.48 0.0 0 0 307.86 349.56
  Q 310.73 350.96 311.81 351.66
  C 316.38 354.62 314.17 359.24 311.99 362.98
  Q 303.24 378.00 295.93 391.24
  A 0.24 0.24 0.0 0 1 295.52 391.25
  L 270.89 350.91
  A 1.86 1.85 -31.0 0 0 268.36 350.29
  Q 266.78 351.22 265.42 353.20
  Q 254.53 368.91 244.83 385.07
  Q 243.73 386.90 240.51 391.14
  A 0.97 0.96 -41.3 0 1 238.91 391.04
  Q 229.67 374.99 222.38 359.07
  Q 220.79 355.59 224.12 352.59
  Q 225.33 351.50 227.81 348.80
  A 0.32 0.32 0.0 0 0 227.57 348.26
  Z
  M 357.49 431.85
  Q 356.57 429.56 357.49 427.23
  Q 359.58 421.92 362.78 415.75
  A 0.93 0.90 -75.9 0 1 363.59 415.25
  L 396.95 415.25
  A 0.94 0.93 -12.3 0 1 397.80 415.79
  C 399.89 420.12 403.65 426.70 402.93 431.71
  A 0.47 0.47 0.0 0 0 403.40 432.25
  L 441.43 432.25
  A 0.24 0.23 -25.9 0 0 441.58 431.83
  L 436.18 427.67
  A 1.75 1.29 80.0 0 1 435.99 427.49
  C 429.62 420.02 424.99 411.06 419.03 399.96
  Q 414.08 390.75 391.81 348.79
  A 1.05 1.04 -13.5 0 0 390.88 348.23
  L 373.33 348.23
  A 0.73 0.72 -75.0 0 0 372.70 348.60
  Q 353.39 381.89 334.30 415.30
  Q 332.17 419.02 329.14 423.59
  C 327.10 426.67 324.15 428.83 321.36 431.12
  A 0.40 0.39 -67.0 0 0 321.64 431.82
  C 323.97 431.62 326.17 432.36 328.46 432.26
  Q 328.93 432.24 357.22 432.26
  A 0.30 0.29 79.1 0 0 357.49 431.85
  Z
  M 533.09 431.75
  Q 533.43 431.86 538.07 431.76
  Q 539.78 431.73 543.44 431.93
  Q 557.28 432.68 572.23 431.97
  A 0.53 0.53 0.0 0 0 572.46 430.97
  C 569.66 429.45 568.77 427.43 568.72 424.03
  Q 568.39 397.65 568.56 361.90
  A 0.59 0.58 -1.6 0 1 569.12 361.32
  C 578.94 360.83 587.69 361.35 595.14 368.34
  Q 597.40 370.47 598.96 371.63
  A 0.83 0.83 0.0 0 0 600.29 370.96
  L 600.29 348.74
  A 0.51 0.51 0.0 0 0 599.78 348.23
  L 502.27 348.23
  A 0.30 0.30 0.0 0 0 501.97 348.53
  L 501.34 372.28
  A 0.82 0.82 0.0 0 0 502.46 373.07
  Q 503.43 372.69 504.25 371.99
  C 510.24 366.83 515.56 361.78 523.56 361.14
  C 526.72 360.89 531.55 360.86 535.16 361.06
  A 0.68 0.67 -89.1 0 1 535.80 361.73
  Q 535.97 400.12 535.61 424.00
  Q 535.54 428.38 532.93 431.16
  A 0.36 0.36 0.0 0 0 533.09 431.75
  Z
  M 743.10 449.79
  C 740.59 446.84 733.34 443.35 729.37 440.06
  Q 716.17 429.12 708.80 418.44
  Q 696.41 400.49 693.35 396.18
  A 0.59 0.59 0.0 0 1 693.56 395.32
  C 701.29 391.29 707.39 387.46 710.36 378.73
  Q 714.65 366.13 706.33 356.00
  Q 703.54 352.61 696.89 349.36
  A 3.85 3.74 -29.3 0 0 695.49 348.99
  Q 692.81 348.81 688.50 348.69
  Q 661.68 347.94 619.25 348.35
  Q 618.88 348.35 611.95 348.50
  A 0.51 0.51 0.0 0 0 611.58 349.34
  L 616.03 354.48
  A 1.62 1.58 -65.6 0 1 616.42 355.56
  Q 615.56 390.57 614.51 417.00
  Q 614.28 422.87 613.45 428.22
  A 4.28 4.18 65.8 0 1 612.86 429.83
  L 611.66 431.75
  A 0.34 0.34 0.0 0 0 611.95 432.27
  L 649.86 432.27
  A 0.78 0.77 -24.1 0 0 650.38 430.92
  C 646.09 427.08 646.37 420.56 646.28 414.00
  Q 646.11 401.94 646.21 363.93
  A 0.44 0.44 0.0 0 1 646.59 363.49
  Q 650.63 362.94 653.51 362.66
  C 662.04 361.82 681.21 364.35 680.16 376.64
  C 679.22 387.70 663.13 391.37 654.41 392.92
  A 1.27 1.26 -22.8 0 0 653.60 394.90
  C 655.69 397.82 658.99 400.63 661.67 403.74
  Q 664.95 407.55 673.25 418.13
  C 680.99 427.99 687.00 433.88 696.51 439.56
  Q 717.61 452.19 742.76 450.58
  A 0.48 0.48 0.0 0 0 743.10 449.79
  Z
  M 450.56 432.26
  L 522.53 432.26
  A 0.57 0.57 0.0 0 0 523.10 431.69
  L 523.10 410.68
  A 0.31 0.30 -24.0 0 0 522.57 410.48
  L 513.55 420.25
  A 1.54 1.51 20.5 0 1 512.45 420.74
  L 481.27 421.26
  A 0.61 0.61 0.0 0 1 480.65 420.65
  L 480.65 356.03
  A 1.04 1.04 0.0 0 1 480.93 355.32
  L 486.28 349.52
  A 0.43 0.43 0.0 0 0 485.97 348.80
  L 448.13 348.80
  A 0.36 0.36 0.0 0 0 447.83 349.35
  L 452.36 356.13
  A 1.43 1.42 28.4 0 1 452.60 356.92
  Q 452.79 392.64 452.42 420.75
  Q 452.31 429.07 450.33 431.80
  A 0.29 0.29 0.0 0 0 450.56 432.26
  Z"
/>
<path fill="#b78a25" d="
  M 210.58 450.62
  A 0.62 0.62 0.0 0 1 210.14 451.65
  Q 201.94 451.99 193.26 451.36
  Q 184.33 450.70 176.82 447.86
  C 156.59 440.22 143.96 421.90 130.92 405.60
  Q 128.67 402.80 122.96 397.51
  Q 122.18 396.79 121.91 396.11
  A 1.57 1.57 0.0 0 1 123.02 393.98
  C 131.56 392.06 139.75 390.52 145.67 384.45
  C 151.51 378.46 147.92 368.74 140.49 365.97
  C 132.67 363.04 124.32 363.06 115.75 363.07
  A 0.60 0.59 -0.0 0 0 115.15 363.66
  Q 114.65 413.04 114.90 424.24
  C 114.96 426.67 117.90 429.58 119.41 431.70
  A 0.35 0.35 0.0 0 1 119.13 432.25
  L 81.52 432.25
  A 0.65 0.65 0.0 0 1 80.92 431.34
  Q 82.66 427.36 82.88 421.50
  Q 83.89 394.12 84.29 354.74
  A 1.02 1.01 -68.5 0 0 83.97 354.00
  L 79.28 349.67
  A 0.64 0.64 0.0 0 1 79.69 348.56
  Q 85.50 348.37 89.02 348.33
  Q 126.31 347.94 157.75 348.76
  Q 163.43 348.91 167.80 351.00
  C 175.88 354.85 180.22 364.55 179.61 373.04
  Q 178.39 390.15 162.04 396.02
  A 0.49 0.49 0.0 0 0 161.79 396.74
  Q 170.93 411.38 181.74 424.76
  C 188.62 433.27 196.47 440.47 205.40 446.62
  Q 209.60 449.50 210.58 450.62
  Z"
/>
<path fill="#b78a25" d="
  M 227.81 348.80
  Q 225.33 351.50 224.12 352.59
  Q 220.79 355.59 222.38 359.07
  Q 229.67 374.99 238.91 391.04
  A 0.97 0.96 -41.3 0 0 240.51 391.14
  Q 243.73 386.90 244.83 385.07
  Q 254.53 368.91 265.42 353.20
  Q 266.78 351.22 268.36 350.29
  A 1.86 1.85 -31.0 0 1 270.89 350.91
  L 295.52 391.25
  A 0.24 0.24 0.0 0 0 295.93 391.24
  Q 303.24 378.00 311.99 362.98
  C 314.17 359.24 316.38 354.62 311.81 351.66
  Q 310.73 350.96 307.86 349.56
  A 0.48 0.48 0.0 0 1 308.06 348.64
  L 347.78 347.99
  A 0.50 0.49 -65.9 0 1 348.11 348.86
  Q 342.15 354.03 338.47 359.71
  Q 336.41 362.89 331.30 372.45
  Q 317.69 397.87 300.72 431.46
  A 1.47 1.46 12.3 0 1 299.46 432.26
  C 295.89 432.39 292.95 432.62 290.80 429.21
  Q 277.33 407.80 267.07 393.29
  A 0.55 0.54 -46.6 0 0 266.16 393.32
  L 242.43 431.53
  A 0.87 0.87 0.0 0 1 241.71 431.94
  L 232.64 432.09
  A 0.78 0.78 0.0 0 1 231.94 431.69
  Q 218.09 407.26 199.08 371.98
  C 193.68 361.96 190.62 355.68 182.89 349.12
  A 0.49 0.49 0.0 0 1 183.21 348.26
  L 227.57 348.26
  A 0.32 0.32 0.0 0 1 227.81 348.80
  Z"
/>
<path fill="#b78a25" d="
  M 357.49 431.85
  A 0.30 0.29 79.1 0 1 357.22 432.26
  Q 328.93 432.24 328.46 432.26
  C 326.17 432.36 323.97 431.62 321.64 431.82
  A 0.40 0.39 -67.0 0 1 321.36 431.12
  C 324.15 428.83 327.10 426.67 329.14 423.59
  Q 332.17 419.02 334.30 415.30
  Q 353.39 381.89 372.70 348.60
  A 0.73 0.72 -75.0 0 1 373.33 348.23
  L 390.88 348.23
  A 1.05 1.04 -13.5 0 1 391.81 348.79
  Q 414.08 390.75 419.03 399.96
  C 424.99 411.06 429.62 420.02 435.99 427.49
  A 1.75 1.29 80.0 0 0 436.18 427.67
  L 441.58 431.83
  A 0.24 0.23 -25.9 0 1 441.43 432.25
  L 403.40 432.25
  A 0.47 0.47 0.0 0 1 402.93 431.71
  C 403.65 426.70 399.89 420.12 397.80 415.79
  A 0.94 0.93 -12.3 0 0 396.95 415.25
  L 363.59 415.25
  A 0.93 0.90 -75.9 0 0 362.78 415.75
  Q 359.58 421.92 357.49 427.23
  Q 356.57 429.56 357.49 431.85
  Z
  M 380.78 381.31
  L 370.97 400.18
  A 0.65 0.65 0.0 0 0 371.43 401.12
  Q 375.49 401.86 378.76 401.72
  Q 384.19 401.48 390.56 401.32
  A 0.29 0.29 0.0 0 0 390.82 400.91
  L 381.64 381.33
  A 0.48 0.48 0.0 0 0 380.78 381.31
  Z"
/>
<path fill="#b78a25" d="
  M 532.93 431.16
  Q 535.54 428.38 535.61 424.00
  Q 535.97 400.12 535.80 361.73
  A 0.68 0.67 -89.1 0 0 535.16 361.06
  C 531.55 360.86 526.72 360.89 523.56 361.14
  C 515.56 361.78 510.24 366.83 504.25 371.99
  Q 503.43 372.69 502.46 373.07
  A 0.82 0.82 0.0 0 1 501.34 372.28
  L 501.97 348.53
  A 0.30 0.30 0.0 0 1 502.27 348.23
  L 599.78 348.23
  A 0.51 0.51 0.0 0 1 600.29 348.74
  L 600.29 370.96
  A 0.83 0.83 0.0 0 1 598.96 371.63
  Q 597.40 370.47 595.14 368.34
  C 587.69 361.35 578.94 360.83 569.12 361.32
  A 0.59 0.58 -1.6 0 0 568.56 361.90
  Q 568.39 397.65 568.72 424.03
  C 568.77 427.43 569.66 429.45 572.46 430.97
  A 0.53 0.53 0.0 0 1 572.23 431.97
  Q 557.28 432.68 543.44 431.93
  Q 539.78 431.73 538.07 431.76
  Q 533.43 431.86 533.09 431.75
  A 0.36 0.36 0.0 0 1 532.93 431.16
  Z"
/>
<path fill="#b78a25" d="
  M 743.10 449.79
  A 0.48 0.48 0.0 0 1 742.76 450.58
  Q 717.61 452.19 696.51 439.56
  C 687.00 433.88 680.99 427.99 673.25 418.13
  Q 664.95 407.55 661.67 403.74
  C 658.99 400.63 655.69 397.82 653.60 394.90
  A 1.27 1.26 -22.8 0 1 654.41 392.92
  C 663.13 391.37 679.22 387.70 680.16 376.64
  C 681.21 364.35 662.04 361.82 653.51 362.66
  Q 650.63 362.94 646.59 363.49
  A 0.44 0.44 0.0 0 0 646.21 363.93
  Q 646.11 401.94 646.28 414.00
  C 646.37 420.56 646.09 427.08 650.38 430.92
  A 0.78 0.77 -24.1 0 1 649.86 432.27
  L 611.95 432.27
  A 0.34 0.34 0.0 0 1 611.66 431.75
  L 612.86 429.83
  A 4.28 4.18 65.8 0 0 613.45 428.22
  Q 614.28 422.87 614.51 417.00
  Q 615.56 390.57 616.42 355.56
  A 1.62 1.58 -65.6 0 0 616.03 354.48
  L 611.58 349.34
  A 0.51 0.51 0.0 0 1 611.95 348.50
  Q 618.88 348.35 619.25 348.35
  Q 661.68 347.94 688.50 348.69
  Q 692.81 348.81 695.49 348.99
  A 3.85 3.74 -29.3 0 1 696.89 349.36
  Q 703.54 352.61 706.33 356.00
  Q 714.65 366.13 710.36 378.73
  C 707.39 387.46 701.29 391.29 693.56 395.32
  A 0.59 0.59 0.0 0 0 693.35 396.18
  Q 696.41 400.49 708.80 418.44
  Q 716.17 429.12 729.37 440.06
  C 733.34 443.35 740.59 446.84 743.10 449.79
  Z"
/>
<path fill="#b78a25" d="
  M 450.33 431.80
  Q 452.31 429.07 452.42 420.75
  Q 452.79 392.64 452.60 356.92
  A 1.43 1.42 28.4 0 0 452.36 356.13
  L 447.83 349.35
  A 0.36 0.36 0.0 0 1 448.13 348.80
  L 485.97 348.80
  A 0.43 0.43 0.0 0 1 486.28 349.52
  L 480.93 355.32
  A 1.04 1.04 0.0 0 0 480.65 356.03
  L 480.65 420.65
  A 0.61 0.61 0.0 0 0 481.27 421.26
  L 512.45 420.74
  A 1.54 1.51 20.5 0 0 513.55 420.25
  L 522.57 410.48
  A 0.31 0.30 -24.0 0 1 523.10 410.68
  L 523.10 431.69
  A 0.57 0.57 0.0 0 1 522.53 432.26
  L 450.56 432.26
  A 0.29 0.29 0.0 0 1 450.33 431.80
  Z"
/>
<path fill="#ffffff" d="
  M 380.78 381.31
  A 0.48 0.48 0.0 0 1 381.64 381.33
  L 390.82 400.91
  A 0.29 0.29 0.0 0 1 390.56 401.32
  Q 384.19 401.48 378.76 401.72
  Q 375.49 401.86 371.43 401.12
  A 0.65 0.65 0.0 0 1 370.97 400.18
  L 380.78 381.31
  Z"
/>
</svg>
